<svg width="48" height="48" viewBox="0 0 48 48" fill="none" xmlns="http://www.w3.org/2000/svg">
<g clip-path="url(#clip0_36_753)">
<mask id="mask0_36_753" style="mask-type:luminance" maskUnits="userSpaceOnUse" x="0" y="0" width="48" height="48">
<path d="M48 0H0V48H48V0Z" fill="white"/>
</mask>
<g mask="url(#mask0_36_753)">
<path d="M24 48C37.2548 48 48 37.2548 48 24C48 10.7452 37.2548 0 24 0C10.7452 0 0 10.7452 0 24C0 37.2548 10.7452 48 24 48Z" fill="white"/>
<path d="M29.0911 21.6054C33.3885 19.3857 35.4986 19.4433 38.1826 23.1254C38.2939 23.2782 38.2541 23.4945 38.0943 23.5953C36.0479 24.8848 34.4848 25.0781 32.7138 24.247C34.1901 25.5486 34.8719 26.7512 34.7173 28.3821C34.7021 28.5417 34.5656 28.6629 34.4051 28.6665C29.8962 28.772 29.6595 25.6673 29.0911 21.6054Z" fill="#246E11"/>
<path d="M17.9904 18.6273C18.8854 18.0952 20.6413 18.7308 23.7406 19.9899C21.1331 18.5761 19.4677 17.663 19.0608 16.7481C18.8752 16.3307 19.2275 15.8687 19.6842 15.8872C20.8077 15.9327 22.268 17.2886 24.4267 19.1467C22.3254 16.956 20.9051 15.5382 20.9203 14.3813C20.9256 13.9759 21.3026 13.635 21.6886 13.7584C22.7392 14.0941 23.8078 16.2147 25.3222 18.5174C24.1573 15.7352 23.448 14.0367 23.7347 13.0682C23.8504 12.6773 24.3317 12.4847 24.6546 12.7334C25.5538 13.4258 25.7062 15.8633 26.2906 18.372C26.2552 15.5564 25.7365 12.9906 26.7976 12.3009C27.0282 12.1511 27.3557 12.1653 27.5211 12.3848C28.167 13.2411 27.4355 15.9898 27.2422 18.6144C28.1245 15.9919 28.6093 13.856 29.6406 13.2596C30.0138 13.0437 30.5154 13.2603 30.5614 13.689C30.6752 14.7478 29.5166 16.5616 28.1368 19.036C29.8286 16.6108 30.8979 14.9199 32.1768 14.7015C32.5562 14.6368 32.9803 14.8772 32.9261 15.2582C32.7867 16.2374 30.944 17.7456 28.8946 19.7278C31.3619 17.964 32.9082 16.7665 34.1248 17.1857C34.3342 17.2579 34.5373 17.4152 34.5498 17.6361C34.5982 18.4884 32.2874 19.322 29.1862 20.6134C31.8349 19.9721 33.6267 19.5171 34.6923 19.8696C35.2512 20.0545 35.3304 20.8062 34.8115 21.0841C33.8278 21.6112 31.9253 21.5404 29.3192 21.5462C32.9669 21.9955 34.5954 22.3428 34.9725 23.0982C35.0738 23.3011 35.0406 23.5601 34.8762 23.7163C34.1642 24.3921 31.9827 23.4884 29.0557 22.5291C32.807 24.372 34.637 25.3441 34.0024 26.207C33.3152 27.0582 31.3299 25.4068 28.4283 23.3121C30.7381 25.5016 32.1691 26.8596 32.0557 27.9329C32.0198 28.2726 31.7002 28.546 31.3699 28.4587C30.3944 28.2008 29.2576 26.2308 27.6538 23.9233C28.8734 26.56 29.4658 28.0766 29.3434 29.158C29.2845 29.6776 28.7128 30.0331 28.3478 29.6585C27.6317 28.9236 27.2037 26.8622 26.5203 24.1659C26.5707 26.4755 26.9768 28.3908 26.3014 29.5684C25.9923 30.1073 25.1942 30.0884 25.0299 29.4894C24.7349 28.4145 25.197 26.5336 25.6302 24.1009C24.808 26.4492 24.415 28.5398 23.4128 29.2606C23.0597 29.5145 22.5285 29.3648 22.484 28.9321C22.3798 27.9219 23.4106 25.9985 24.5363 23.5179C22.8357 25.838 21.7352 27.5729 20.5774 27.6584C20.2768 27.6804 19.9674 27.5 19.9085 27.2043C19.7176 26.247 21.4478 24.9262 23.9389 22.8977C21.0595 24.8947 19.4973 25.8908 18.4878 25.3947C18.3606 25.3323 18.2475 25.2337 18.1918 25.1033C17.7736 24.1243 20.561 23.2512 23.4891 21.9238C20.3301 22.655 18.3054 23.1824 17.6275 22.3369C17.4942 22.1707 17.453 21.9396 17.5293 21.7406C17.8998 20.7745 20.0035 20.7905 23.3843 20.7744C20.0138 20.452 18.189 20.1944 17.7434 19.4284C17.5829 19.1526 17.716 18.7904 17.9904 18.6273Z" fill="#EB99CA"/>
<path d="M25.9876 23.961C27.5068 24.1585 28.8985 23.0872 29.0961 21.568C29.2936 20.0488 28.2223 18.6571 26.7031 18.4596C25.1839 18.262 23.7922 19.3333 23.5946 20.8525C23.3971 22.3717 24.4684 23.7634 25.9876 23.961Z" fill="#851B47"/>
<path d="M5.76001 31.1116C5.76001 31.1116 6.38606 33.4804 7.87662 32.5695C8.35859 32.2749 8.58614 31.7071 8.69151 31.1521C9.78774 25.3789 9.73574 25.7583 10.5225 21.189C11.0887 17.9004 12.4117 8.31657 13.6796 18.2058C13.6828 18.2305 13.6865 18.2572 13.6902 18.2817C13.8042 19.0322 15.6244 31.0431 15.6244 33.1321C15.6244 35.2885 14.8439 32.1106 11.648 29.1489C8.45204 26.1871 18.3315 29.6383 18.3315 26.7937" stroke="#246E11" stroke-linecap="round"/>
<path d="M10.8438 35.3669L10.8446 35.3683L10.8455 35.3698C11.2707 36.0821 11.8764 36.5152 12.653 36.6469C13.395 36.7726 14.102 36.5707 14.7625 36.0699C15.4117 35.5776 16.0009 34.8638 16.5348 33.9406L16.5354 33.9395C17.0708 33.0014 17.534 31.9182 17.9261 30.6917C18.3253 29.4659 18.6335 28.1582 18.8514 26.7691C19.0721 25.3618 19.1405 24.1075 19.0532 23.0086C18.9685 21.8954 18.722 20.9808 18.298 20.2805C17.8762 19.5529 17.2722 19.1099 16.4938 18.9781C15.7518 18.8523 15.0449 19.0541 14.3843 19.555C13.7345 20.0478 13.144 20.7702 12.6079 21.7094C12.0749 22.6312 11.6096 23.7057 11.2106 24.9309L11.2102 24.932C10.8181 26.1587 10.5133 27.4667 10.2955 28.8557C10.0772 30.2472 10.0089 31.5011 10.0936 32.6158L10.0937 32.6173C10.1854 33.7322 10.4309 34.6533 10.8438 35.3669ZM10.7853 32.3683C10.7143 31.3683 10.7766 30.2363 10.9751 28.9709C11.1842 27.6371 11.4771 26.3947 11.8532 25.2432C12.2295 24.0909 12.6608 23.0949 13.1457 22.2528C13.6369 21.413 14.1575 20.7909 14.7031 20.3741C15.2451 19.9664 15.7823 19.8241 16.3255 19.9163C16.9233 20.0176 17.3837 20.3446 17.7167 20.9213L17.7177 20.9227L17.7186 20.9243C18.062 21.4995 18.2778 22.2713 18.3513 23.2544L18.3514 23.256C18.4316 24.2397 18.3729 25.3717 18.1717 26.6541C17.9626 27.9878 17.6697 29.2302 17.2937 30.3816C16.9173 31.5339 16.4828 32.5291 15.9912 33.3696L15.9904 33.371C15.5062 34.2117 14.9858 34.8333 14.434 35.2486L14.4327 35.2496C13.8979 35.6579 13.3645 35.8006 12.8213 35.7086C12.2213 35.607 11.7598 35.2861 11.4253 34.7267C11.0831 34.1334 10.8655 33.3515 10.7853 32.3683Z" fill="#851B47" stroke="#851B47"/>
<path d="M15.2957 32.5783C15.2957 34.7348 13.2385 31.0157 11.3193 28.5953C9.40002 26.1746 18.4 29.4845 18.4 26.6399" stroke="#246E11" stroke-linecap="round"/>
<path d="M17.0598 33.9755V32.0134H19.087V33.9755H18.4029V32.4116L18.5549 32.5599H17.5955L17.744 32.4116V33.9755H17.0598ZM19.9937 33.9755V32.4079L20.1421 32.5599H19.3601V32.0134H21.3078V32.5599H20.5257L20.6779 32.4079V33.9755H19.9937ZM22.5065 34.0079C22.2749 34.0079 22.0721 33.9646 21.8984 33.8777C21.727 33.7884 21.5929 33.6678 21.4965 33.5156C21.4024 33.3612 21.3553 33.1862 21.3553 32.9908C21.3553 32.7953 21.4011 32.6215 21.4929 32.4695C21.587 32.315 21.7161 32.1956 21.8801 32.1111C22.0443 32.0243 22.2289 31.9807 22.4341 31.9807C22.6272 31.9807 22.8033 32.0206 22.9625 32.1003C23.1219 32.1774 23.2486 32.2921 23.3427 32.4441C23.4368 32.5961 23.484 32.7807 23.484 32.998C23.484 33.0222 23.4827 33.0499 23.4803 33.0812C23.4779 33.1126 23.4755 33.1415 23.4731 33.1681H21.92V32.8062H23.1075L22.8467 32.9075C22.8493 32.8182 22.8323 32.7409 22.7961 32.6758C22.7624 32.6107 22.7141 32.5599 22.6513 32.5238C22.591 32.4876 22.5198 32.4695 22.4377 32.4695C22.3557 32.4695 22.2832 32.4876 22.2205 32.5238C22.1601 32.5599 22.1131 32.6119 22.0793 32.6795C22.0456 32.7446 22.0286 32.8219 22.0286 32.9111V33.0161C22.0286 33.1126 22.048 33.1959 22.0865 33.2659C22.1277 33.3359 22.1856 33.3902 22.2603 33.4287C22.3352 33.4651 22.4245 33.4831 22.5281 33.4831C22.6248 33.4831 22.7069 33.4699 22.7744 33.4433C22.8443 33.4143 22.9131 33.3708 22.9808 33.3129L23.3427 33.6894C23.2486 33.7932 23.1328 33.8729 22.9952 33.9284C22.8576 33.9815 22.6947 34.0079 22.5065 34.0079ZM25.223 33.9755L24.6257 33.0596L25.1797 32.7337L26.0339 33.9755H25.223ZM23.8475 33.9755V32.0134H24.5352V33.9755H23.8475ZM24.3325 33.2767V32.7374H25.0421V33.2767H24.3325ZM25.2485 33.0703L24.604 33.0052L25.2629 32.0134H25.9905L25.2485 33.0703ZM27.3886 33.9755V33.6099L27.3416 33.5193V32.846C27.3416 32.7374 27.3078 32.654 27.2403 32.5961C27.1752 32.5358 27.0701 32.5057 26.9253 32.5057C26.8312 32.5057 26.7358 32.5214 26.6393 32.5527C26.5429 32.5817 26.4608 32.6227 26.3931 32.6758L26.1614 32.2089C26.2725 32.1364 26.4053 32.0809 26.5597 32.0423C26.7166 32.0012 26.8723 31.9807 27.0267 31.9807C27.3453 31.9807 27.5913 32.0543 27.7651 32.2015C27.9414 32.3463 28.0294 32.5745 28.0294 32.8859V33.9755H27.3886ZM26.8094 34.0079C26.6526 34.0079 26.5198 33.9815 26.4113 33.9284C26.3027 33.8753 26.2193 33.8028 26.1614 33.7111C26.1059 33.6195 26.0782 33.5169 26.0782 33.4035C26.0782 33.2828 26.1085 33.179 26.1688 33.0921C26.2315 33.0028 26.3269 32.9353 26.4547 32.8894C26.5825 32.8411 26.748 32.8171 26.9507 32.8171H27.4141V33.1755H27.0448C26.9337 33.1755 26.8553 33.1935 26.8094 33.2297C26.7661 33.2659 26.7443 33.3142 26.7443 33.3745C26.7443 33.4348 26.7672 33.4831 26.8131 33.5193C26.859 33.5555 26.9217 33.5735 27.0013 33.5735C27.0761 33.5735 27.1437 33.5555 27.2041 33.5193C27.2669 33.4807 27.3126 33.4228 27.3416 33.3455L27.4358 33.599C27.3995 33.734 27.3283 33.8366 27.2222 33.9067C27.1184 33.9742 26.9808 34.0079 26.8094 34.0079ZM29.6777 34.0079C29.5112 34.0079 29.3688 33.9718 29.2505 33.8995C29.1323 33.8246 29.0417 33.7135 28.979 33.5663C28.9187 33.4167 28.8885 33.226 28.8885 32.9943C28.8885 32.7603 28.9174 32.5697 28.9753 32.4223C29.0333 32.2727 29.1201 32.1617 29.236 32.0894C29.3542 32.0169 29.5016 31.9807 29.6777 31.9807C29.8563 31.9807 30.0179 32.023 30.1629 32.1075C30.3101 32.1895 30.4259 32.3065 30.5104 32.4587C30.5973 32.6083 30.6406 32.7868 30.6406 32.9943C30.6406 33.2019 30.5973 33.3817 30.5104 33.5337C30.4259 33.6859 30.3101 33.8028 30.1629 33.8849C30.0179 33.967 29.8563 34.0079 29.6777 34.0079ZM28.4432 34.6777V32.0134H29.0985V32.3463L29.0949 32.9943L29.131 33.646V34.6777H28.4432ZM29.5329 33.4614C29.6101 33.4614 29.6789 33.4433 29.7392 33.4071C29.8019 33.3708 29.8515 33.3177 29.8877 33.2478C29.9262 33.1779 29.9456 33.0934 29.9456 32.9943C29.9456 32.8955 29.9262 32.811 29.8877 32.7409C29.8515 32.671 29.8019 32.6179 29.7392 32.5817C29.6789 32.5455 29.6101 32.5275 29.5329 32.5275C29.4557 32.5275 29.3857 32.5455 29.3229 32.5817C29.2625 32.6179 29.2131 32.671 29.1745 32.7409C29.1382 32.811 29.1201 32.8955 29.1201 32.9943C29.1201 33.0934 29.1382 33.1779 29.1745 33.2478C29.2131 33.3177 29.2625 33.3708 29.3229 33.4071C29.3857 33.4433 29.4557 33.4614 29.5329 33.4614ZM31.9557 34.0079C31.7384 34.0079 31.5441 33.9646 31.3728 33.8777C31.2038 33.7908 31.071 33.6713 30.9745 33.5193C30.8781 33.3649 30.8297 33.1887 30.8297 32.9908C30.8297 32.7929 30.8781 32.6179 30.9745 32.4659C31.071 32.3139 31.2038 32.1956 31.3728 32.1111C31.5441 32.0243 31.7384 31.9807 31.9557 31.9807C32.1776 31.9807 32.3694 32.0278 32.5312 32.122C32.6929 32.2161 32.8075 32.3487 32.8752 32.5201L32.343 32.7916C32.2971 32.6999 32.2405 32.6335 32.1728 32.5926C32.1053 32.5491 32.0317 32.5275 31.952 32.5275C31.8723 32.5275 31.8 32.5455 31.7347 32.5817C31.6696 32.6179 31.6177 32.671 31.5792 32.7409C31.5429 32.8086 31.5248 32.8918 31.5248 32.9908C31.5248 33.0921 31.5429 33.1779 31.5792 33.2478C31.6177 33.3177 31.6696 33.3708 31.7347 33.4071C31.8 33.4433 31.8723 33.4614 31.952 33.4614C32.0317 33.4614 32.1053 33.4409 32.1728 33.3998C32.2405 33.3564 32.2971 33.2887 32.343 33.1971L32.8752 33.4686C32.8075 33.6399 32.6929 33.7727 32.5312 33.8668C32.3694 33.9609 32.1776 34.0079 31.9557 34.0079ZM34.5384 33.9755L33.9411 33.0596L34.495 32.7337L35.3493 33.9755H34.5384ZM33.1629 33.9755V32.0134H33.8505V33.9755H33.1629ZM33.6478 33.2767V32.7374H34.3574V33.2767H33.6478ZM34.5638 33.0703L33.9193 33.0052L34.5782 32.0134H35.3059L34.5638 33.0703ZM35.5774 33.9755V32.0134H36.2616V33.0414L37.0833 32.0134H37.7168V33.9755H37.0289V32.9438L36.2145 33.9755H35.5774ZM38.1793 33.9755V32.0134H38.8635V33.0414L39.6853 32.0134H40.3187V33.9755H39.631V32.9438L38.8165 33.9755H38.1793ZM39.2001 31.8251C38.9685 31.8251 38.7971 31.7769 38.6861 31.6803C38.5776 31.5814 38.5221 31.4305 38.5197 31.2278H38.9649C38.9673 31.3075 38.9854 31.3702 39.0192 31.4161C39.0553 31.4595 39.1145 31.4812 39.1966 31.4812C39.2785 31.4812 39.3389 31.4595 39.3776 31.4161C39.4161 31.3702 39.4355 31.3075 39.4355 31.2278H39.888C39.888 31.4305 39.8313 31.5814 39.7179 31.6803C39.6069 31.7769 39.4342 31.8251 39.2001 31.8251Z" fill="#246E11"/>
<path d="M16.4151 36.6777C16.4116 36.6316 16.4169 36.5678 16.4311 36.4862C16.4489 36.4046 16.4684 36.3247 16.4897 36.2467C16.5145 36.1687 16.534 36.1119 16.5481 36.0764C16.5801 35.9771 16.6121 35.8777 16.6439 35.7785C16.6794 35.6756 16.713 35.5745 16.745 35.4751C16.7806 35.3758 16.8124 35.2836 16.8409 35.1985C16.8409 35.195 16.8409 35.1931 16.8409 35.1931C16.8444 35.1895 16.8462 35.186 16.8462 35.1825C16.8462 35.179 16.8462 35.1755 16.8462 35.1718C16.8462 35.1647 16.8462 35.1577 16.8462 35.1505C16.8462 35.1435 16.8462 35.1347 16.8462 35.1239C16.8319 35.0494 16.839 34.9892 16.8674 34.943C16.8993 34.8969 16.9188 34.8651 16.926 34.8473C16.9578 34.8188 16.9934 34.7993 17.0324 34.7887C17.0714 34.778 17.1158 34.787 17.1654 34.8153C17.2186 34.8012 17.293 34.787 17.3889 34.7727C17.4882 34.7585 17.5609 34.7409 17.6071 34.7196C17.6532 34.7159 17.6922 34.7124 17.7241 34.7089C17.7561 34.7054 17.7879 34.7036 17.8199 34.7036C17.8518 34.7001 17.8908 34.7019 17.9369 34.7089C17.9831 34.7089 18.0327 34.7267 18.086 34.7622C18.1391 34.794 18.1906 34.8419 18.2402 34.9059C18.2473 34.9697 18.242 35.0211 18.2242 35.0601C18.2066 35.0956 18.1694 35.1169 18.1126 35.1239C18.0913 35.1239 18.047 35.1239 17.9796 35.1239C17.9156 35.1239 17.8482 35.1275 17.7774 35.1347C17.7063 35.1382 17.6479 35.1487 17.6017 35.1665C17.5663 35.1772 17.5308 35.186 17.4953 35.1931C17.4598 35.1967 17.4262 35.2003 17.3942 35.2038C17.3658 35.2038 17.3393 35.2091 17.3143 35.2198C17.293 35.2659 17.2754 35.3191 17.2612 35.3793C17.2505 35.4396 17.2364 35.4929 17.2186 35.539C17.2009 35.5958 17.1831 35.6508 17.1654 35.7039C17.1476 35.7535 17.13 35.8033 17.1122 35.8529C17.098 35.8991 17.0838 35.9435 17.0697 35.986C17.0484 36.0569 17.0271 36.1225 17.0058 36.1828C16.9881 36.2396 16.9703 36.2929 16.9526 36.3425C16.9383 36.3886 16.9242 36.4329 16.91 36.4755C16.8852 36.5535 16.8639 36.6174 16.8462 36.6671C16.8284 36.7132 16.8142 36.7505 16.8036 36.7788C16.7964 36.8036 16.7876 36.8231 16.777 36.8374C16.7521 36.8515 16.7202 36.8622 16.6812 36.8692C16.6422 36.8764 16.6049 36.8782 16.5694 36.8747C16.5127 36.8675 16.4737 36.8462 16.4524 36.8108C16.4346 36.7788 16.4222 36.7345 16.4151 36.6777ZM18.9007 36.7628C18.8545 36.7628 18.8174 36.754 18.7889 36.7363C18.7641 36.7185 18.7321 36.6937 18.6932 36.6617C18.6257 36.5908 18.5708 36.5145 18.5282 36.4329C18.4892 36.3513 18.475 36.2804 18.4857 36.2201C18.4962 36.1918 18.4998 36.1651 18.4962 36.1403C18.4962 36.1119 18.4962 36.0977 18.4962 36.0977C18.4785 36.0799 18.4732 36.0694 18.4802 36.0659C18.4874 36.0587 18.4945 36.0481 18.5015 36.0339C18.5228 36.0339 18.53 36.0143 18.5228 35.9753C18.5158 35.947 18.5265 35.8867 18.5548 35.7943C18.5866 35.6987 18.6294 35.6081 18.6825 35.523C18.7038 35.4876 18.7358 35.4414 18.7783 35.3847C18.8209 35.3244 18.867 35.2659 18.9166 35.2091C18.9698 35.1487 19.0177 35.1009 19.0602 35.0654C19.149 34.991 19.2306 34.9307 19.305 34.8846C19.3831 34.8383 19.4612 34.8065 19.5391 34.7887C19.6172 34.771 19.697 34.7622 19.7786 34.7622C19.8638 34.7622 19.9329 34.7905 19.9862 34.8473C20.0678 34.8827 20.1246 34.9307 20.1564 34.991C20.1919 35.0513 20.215 35.1292 20.2257 35.2251C20.2362 35.3315 20.2257 35.4627 20.1937 35.6188C20.1617 35.7713 20.0748 35.9487 19.9329 36.151C19.8442 36.2787 19.7574 36.378 19.6722 36.4489C19.5871 36.5198 19.493 36.5855 19.3902 36.6459C19.3158 36.6955 19.2359 36.7255 19.1508 36.7363C19.0657 36.7468 18.9823 36.7558 18.9007 36.7628ZM19.4434 36.1137C19.5215 36.0463 19.5764 35.9718 19.6084 35.8902C19.6438 35.8086 19.681 35.7129 19.7201 35.6028C19.7343 35.5815 19.7431 35.546 19.7466 35.4964C19.7538 35.4468 19.7556 35.3988 19.7521 35.3527C19.7486 35.3031 19.7361 35.2747 19.7148 35.2676C19.6828 35.2428 19.651 35.2375 19.619 35.2516C19.5871 35.2623 19.5463 35.2854 19.4966 35.3209C19.3902 35.4095 19.2908 35.5124 19.1986 35.6294C19.11 35.743 19.0479 35.8831 19.0124 36.0499C19.0018 36.1385 19.0106 36.2059 19.039 36.2521C19.071 36.2947 19.1206 36.307 19.1879 36.2892C19.259 36.2679 19.3441 36.2094 19.4434 36.1137ZM21.0041 37.7846C20.9545 37.7987 20.903 37.7863 20.8498 37.7473C20.8001 37.7083 20.761 37.655 20.7327 37.5876C20.7079 37.5203 20.7079 37.451 20.7327 37.3801C20.7398 37.3588 20.7505 37.3233 20.7647 37.2737C20.7788 37.2276 20.7878 37.1868 20.7913 37.1513C20.7948 37.1265 20.8055 37.0839 20.8231 37.0236C20.8409 36.9668 20.8604 36.91 20.8817 36.8534C20.9066 36.7966 20.926 36.7558 20.9402 36.731C20.9615 36.6955 20.9758 36.6547 20.9828 36.6086C20.9935 36.5625 20.9988 36.527 20.9988 36.5022C21.0058 36.4772 21.0148 36.4489 21.0254 36.4171C21.0396 36.3851 21.0538 36.3603 21.0679 36.3425C21.0751 36.3142 21.0857 36.2839 21.0999 36.2521C21.1142 36.2166 21.13 36.1863 21.1478 36.1615C21.1548 36.1367 21.1602 36.1067 21.1638 36.0711C21.1708 36.0356 21.1815 36.0161 21.1956 36.0126C21.1993 35.9983 21.201 35.9843 21.201 35.97C21.2046 35.9558 21.2116 35.9363 21.2223 35.9115C21.2294 35.8724 21.2454 35.8156 21.2702 35.7412C21.295 35.6667 21.3252 35.5851 21.3606 35.4964C21.3996 35.3935 21.4263 35.3049 21.4404 35.2303C21.4546 35.1523 21.4351 35.1027 21.3818 35.0814C21.3535 35.0671 21.3358 35.0353 21.3287 34.9855C21.3217 34.9324 21.3252 34.8791 21.3393 34.826C21.3535 34.7727 21.3748 34.7409 21.4031 34.7302C21.4351 34.7159 21.4742 34.7071 21.5202 34.7036C21.5663 34.7001 21.6071 34.7001 21.6426 34.7036C21.6817 34.7036 21.6994 34.7071 21.6959 34.7142C21.6959 34.7319 21.7047 34.7427 21.7225 34.7462C21.7295 34.7355 21.7438 34.7515 21.765 34.794C21.7898 34.8331 21.8129 34.8774 21.8342 34.9271C21.8554 34.9767 21.8662 35.0105 21.8662 35.0281C21.859 35.0423 21.8554 35.0513 21.8554 35.0548C21.8554 35.0548 21.8626 35.0548 21.8767 35.0548C21.8767 35.0548 21.8962 35.0459 21.9353 35.0281C21.9743 35.0068 22.0151 34.9838 22.0577 34.959C22.1038 34.9307 22.134 34.9094 22.1481 34.8951C22.1481 34.8951 22.157 34.8916 22.1748 34.8846C22.1961 34.8739 22.2138 34.8614 22.2279 34.8473C22.299 34.8188 22.3751 34.8135 22.4567 34.8313C22.5418 34.8491 22.6094 34.8809 22.659 34.9271C22.73 35.0158 22.7831 35.1257 22.8186 35.2571C22.8577 35.3883 22.8522 35.5159 22.8026 35.6401C22.7956 35.6579 22.7796 35.6879 22.7548 35.7305C22.7335 35.7695 22.7122 35.8068 22.691 35.8423C22.6697 35.8742 22.659 35.8902 22.659 35.8902C22.5774 36.0179 22.487 36.1243 22.3876 36.2094C22.2918 36.2947 22.1871 36.3691 22.0737 36.4329C22.0382 36.4577 21.9886 36.4809 21.9247 36.5022C21.8644 36.5235 21.8076 36.5393 21.7543 36.55C21.7047 36.5606 21.6746 36.5625 21.6639 36.5553C21.6249 36.527 21.5894 36.4667 21.5575 36.3743C21.5398 36.4206 21.522 36.4667 21.5042 36.5127C21.4902 36.5553 21.4812 36.5838 21.4777 36.5979C21.4742 36.6227 21.4706 36.6439 21.4671 36.6617C21.4634 36.6759 21.4546 36.6884 21.4404 36.699C21.4404 36.699 21.4386 36.706 21.4351 36.7203C21.4316 36.7345 21.4191 36.7558 21.3978 36.7841C21.3625 36.887 21.334 36.9668 21.3127 37.0236C21.2914 37.0839 21.2737 37.1318 21.2596 37.1673C21.2489 37.2063 21.2383 37.2471 21.2276 37.2897C21.2206 37.3854 21.1975 37.4865 21.1585 37.5929C21.123 37.6993 21.0714 37.7631 21.0041 37.7846ZM21.7969 36.0551C21.8111 36.0481 21.8359 36.0356 21.8714 36.0179C21.9105 36.0001 21.953 35.9788 21.9991 35.954C22.0452 35.9257 22.0879 35.8991 22.1268 35.8742C22.1694 35.8459 22.1996 35.8211 22.2174 35.7998C22.2457 35.7678 22.2617 35.743 22.2652 35.7252C22.2687 35.7039 22.2777 35.6702 22.2918 35.6241C22.3025 35.5958 22.3148 35.5638 22.329 35.5284C22.3433 35.4929 22.3556 35.4591 22.3663 35.4273C22.3806 35.3988 22.3858 35.3705 22.3823 35.3422C22.3823 35.3102 22.3716 35.2836 22.3503 35.2623C22.3362 35.2588 22.3025 35.2641 22.2492 35.2783C22.1996 35.2924 22.141 35.3209 22.0737 35.3635C22.0098 35.406 21.946 35.4681 21.8822 35.5497C21.8076 35.6454 21.758 35.7323 21.733 35.8103C21.7082 35.8849 21.703 35.9452 21.7172 35.9913C21.7313 36.0339 21.758 36.0551 21.7969 36.0551ZM24.3452 36.7575C24.2708 36.7718 24.214 36.7681 24.175 36.7468C24.1394 36.722 24.1022 36.6919 24.0633 36.6564C24.0065 36.6281 23.955 36.5891 23.9089 36.5393C23.8628 36.4862 23.8273 36.4311 23.8025 36.3743C23.7777 36.3177 23.767 36.2734 23.7705 36.2414C23.7812 36.1172 23.8095 35.9825 23.8558 35.8371C23.9054 35.6915 23.9674 35.5497 24.0418 35.4113C24.1199 35.2729 24.2068 35.1505 24.3026 35.0441C24.402 34.9342 24.5084 34.8543 24.6218 34.8047C24.6929 34.7763 24.7692 34.7657 24.8508 34.7727C24.9322 34.7798 24.9873 34.8135 25.0156 34.8739C25.0689 34.9767 25.0564 35.0423 24.9785 35.0708C24.9678 35.0708 24.9554 35.0761 24.9412 35.0867C24.927 35.0939 24.9199 35.1044 24.9199 35.1187C24.9342 35.1257 24.973 35.1275 25.037 35.1239C25.1009 35.1169 25.1647 35.1062 25.2286 35.0921C25.2959 35.0743 25.3402 35.0566 25.3615 35.0388C25.3828 35.0281 25.3988 35.0228 25.4095 35.0228C25.4201 35.0228 25.4466 35.0263 25.4892 35.0335C25.5495 35.0513 25.5798 35.0726 25.5798 35.0974C25.5798 35.1115 25.585 35.1347 25.5956 35.1665C25.6063 35.195 25.6188 35.2091 25.6329 35.2091C25.6577 35.2126 25.6631 35.2375 25.6489 35.2836C25.6383 35.3297 25.5975 35.3775 25.5265 35.4273C25.4591 35.4699 25.4166 35.4982 25.3988 35.5124C25.3846 35.523 25.3828 35.5479 25.3935 35.5868C25.4218 35.6543 25.4201 35.7359 25.3881 35.8316C25.3562 35.9275 25.303 36.0268 25.2286 36.1297C25.154 36.2326 25.0654 36.33 24.9625 36.4223C24.8631 36.511 24.7585 36.5873 24.6486 36.6511C24.5422 36.7115 24.441 36.7468 24.3452 36.7575ZM24.3612 36.3105C24.3754 36.3105 24.4002 36.3035 24.4358 36.2892C24.4711 36.2715 24.4996 36.2574 24.5209 36.2467C24.535 36.2326 24.5527 36.2166 24.574 36.1988C24.5988 36.1775 24.6183 36.1651 24.6326 36.1615C24.6468 36.1615 24.6556 36.1563 24.6591 36.1455C24.6626 36.1315 24.6751 36.1047 24.6964 36.0659C24.7177 36.0231 24.7602 35.9612 24.8241 35.8796C24.8951 35.8015 24.9412 35.7395 24.9625 35.6934C24.9838 35.6436 24.9855 35.5905 24.9678 35.5337C24.9642 35.5195 24.9537 35.5107 24.9359 35.5071C24.9217 35.5035 24.9022 35.4947 24.8774 35.4804C24.8418 35.4804 24.817 35.4894 24.8028 35.5071C24.7922 35.5212 24.7674 35.5124 24.7284 35.4804L24.6433 35.374L24.5527 35.4646C24.4959 35.5212 24.4446 35.5923 24.3985 35.6774C24.3559 35.7625 24.3222 35.8494 24.2974 35.938C24.2726 36.0268 24.2566 36.1047 24.2495 36.1723C24.2458 36.2254 24.2548 36.2609 24.2761 36.2787C24.2974 36.2964 24.3257 36.307 24.3612 36.3105ZM26.7054 36.8534C26.6913 36.8497 26.6753 36.8479 26.6575 36.8479C26.6398 36.8479 26.622 36.8462 26.6042 36.8427C26.4447 36.7398 26.3418 36.6246 26.2958 36.4967C26.2532 36.3655 26.2442 36.2271 26.269 36.0817C26.2975 35.9363 26.3383 35.7891 26.3914 35.6401C26.4127 35.5798 26.4394 35.5195 26.4713 35.4591C26.5068 35.3953 26.5441 35.3332 26.583 35.2729C26.6327 35.2055 26.6858 35.1435 26.7426 35.0867C26.803 35.0263 26.865 34.9732 26.9289 34.9271C26.9927 34.8809 27.0566 34.8438 27.1204 34.8153C27.163 34.787 27.1985 34.7692 27.227 34.7622C27.2588 34.755 27.2978 34.7391 27.3439 34.7142C27.3652 34.7142 27.3972 34.7159 27.4398 34.7196C27.4823 34.7196 27.5231 34.7302 27.5622 34.7515C27.6012 34.7692 27.6313 34.8012 27.6526 34.8473C27.6738 34.8899 27.6738 34.9537 27.6526 35.0388C27.617 35.0459 27.5799 35.0566 27.5409 35.0708C27.5054 35.0814 27.4681 35.0956 27.429 35.1134C27.2871 35.1772 27.1612 35.2588 27.0513 35.358C26.9414 35.4574 26.8668 35.5585 26.8278 35.6614C26.7924 35.75 26.7639 35.8371 26.7426 35.9222C26.7214 36.0073 26.7108 36.0799 26.7108 36.1403C26.7108 36.2219 26.7284 36.2734 26.7639 36.2947C26.7959 36.3159 26.8295 36.3265 26.865 36.3265C26.9006 36.323 26.9361 36.3105 26.9714 36.2892C27.007 36.2679 27.0407 36.2396 27.0726 36.2041C27.0833 36.19 27.0938 36.1758 27.1046 36.1615C27.1186 36.1473 27.1311 36.1332 27.1417 36.119C27.241 35.9878 27.3279 35.8334 27.4025 35.6561C27.477 35.4751 27.5231 35.2393 27.5409 34.9484C27.5586 34.8881 27.5727 34.8313 27.5834 34.778C27.594 34.7249 27.603 34.6751 27.61 34.6291C27.617 34.583 27.6225 34.5439 27.626 34.5121C27.6188 34.4943 27.6082 34.4731 27.594 34.4481C27.5834 34.4233 27.5817 34.402 27.5887 34.3843C27.5745 34.3489 27.5622 34.3134 27.5514 34.2779C27.5444 34.2425 27.5354 34.207 27.5249 34.1715C27.4966 34.0793 27.4468 34.0118 27.3759 33.9692C27.3049 33.9267 27.227 33.9019 27.1417 33.8948C27.0566 33.8876 26.9732 33.8966 26.8916 33.9214C26.8562 33.9391 26.8295 33.9479 26.8119 33.9479C26.7977 33.9444 26.7711 33.9479 26.7321 33.9587C26.6788 33.9409 26.631 33.9071 26.5884 33.8575C26.5458 33.8079 26.5209 33.7547 26.5138 33.6979C26.5068 33.627 26.5191 33.5737 26.5511 33.5383C26.583 33.4993 26.6257 33.4708 26.6788 33.4531C26.7321 33.4318 26.7834 33.4159 26.8332 33.4052C26.8545 33.3982 26.874 33.3929 26.8916 33.3892C26.9129 33.3822 26.9361 33.3787 26.9609 33.3787C27.0212 33.3929 27.0778 33.3982 27.1311 33.3947C27.1879 33.391 27.2446 33.4035 27.3014 33.4318C27.383 33.4603 27.4575 33.4903 27.5249 33.5223C27.5922 33.5507 27.6526 33.6022 27.7058 33.6766C27.7199 33.6943 27.7359 33.7121 27.7537 33.7299C27.775 33.7439 27.791 33.7599 27.8015 33.7777C27.8406 33.8451 27.8743 33.9196 27.9026 34.0012C27.9346 34.0793 27.9612 34.1591 27.9825 34.2406C28.018 34.386 28.0375 34.5387 28.041 34.6983C28.0481 34.8543 28.041 35.0123 28.0198 35.1718C27.9985 35.3315 27.963 35.4859 27.9134 35.6348C27.9098 35.6631 27.8974 35.6879 27.8761 35.7092C27.8583 35.7305 27.8513 35.7555 27.8548 35.7838C27.791 35.915 27.7236 36.0446 27.6526 36.1723C27.5817 36.2999 27.5001 36.4188 27.4078 36.5287C27.3156 36.6351 27.2002 36.7238 27.062 36.7948C27.0265 36.8126 26.9679 36.8284 26.8863 36.8427C26.8047 36.8569 26.7444 36.8604 26.7054 36.8534Z" fill="#851B47"/>
<path d="M13.8964 8.39904L13.7251 6.57152L14.1335 6.34351L15.6014 7.44723L15.1699 7.68811L13.9579 6.70805L14.1213 6.61683L14.3195 8.16283L13.8964 8.39904ZM14.0913 7.91656L14.0274 7.55112L14.7438 7.15122L15.0213 7.39739L14.0913 7.91656Z" fill="#246E11"/>
<path d="M16.7224 6.98609C16.6208 7.02929 16.5246 7.04415 16.4337 7.0307C16.3422 7.01575 16.2582 6.97154 16.1817 6.89806C16.1062 6.82247 16.0384 6.71404 15.9782 6.57276C15.9174 6.43002 15.8856 6.30626 15.8828 6.20146C15.8793 6.09519 15.9034 6.00497 15.9553 5.93076C16.0086 5.85594 16.0889 5.79567 16.1964 5.74996C16.3052 5.70362 16.4148 5.68743 16.5251 5.70137C16.6361 5.71321 16.7371 5.75454 16.8281 5.82532C16.9198 5.89402 16.9928 5.99164 17.0465 6.1182C17.1004 6.24476 17.1206 6.36566 17.107 6.4809C17.095 6.59553 17.0547 6.69695 16.9862 6.78519C16.9192 6.87279 16.8313 6.93975 16.7224 6.98609ZM16.1433 7.71471L15.4521 6.09009L15.8517 5.9201L15.9381 6.12318L16.104 6.51924L16.2952 6.90716L16.5628 7.53626L16.1433 7.71471ZM16.4923 6.69034C16.5393 6.67031 16.5766 6.64143 16.604 6.6037C16.6329 6.56535 16.6492 6.52014 16.6531 6.46807C16.6585 6.41537 16.6484 6.35886 16.6227 6.29852C16.5971 6.23818 16.5633 6.19169 16.5217 6.15903C16.4814 6.12575 16.4376 6.10622 16.3899 6.10042C16.3436 6.09399 16.2971 6.10081 16.2499 6.12084C16.2028 6.14087 16.1649 6.17007 16.136 6.20842C16.1086 6.24615 16.0923 6.29137 16.0868 6.34406C16.0828 6.39612 16.0937 6.45233 16.1195 6.51266C16.1451 6.573 16.178 6.6198 16.2184 6.65308C16.26 6.68575 16.304 6.70529 16.3502 6.7117C16.3977 6.7175 16.4451 6.71038 16.4923 6.69034Z" fill="#246E11"/>
<path d="M18.1806 6.45039C18.3007 6.41172 18.4047 6.36148 18.4924 6.2997C18.5801 6.23791 18.6433 6.16802 18.682 6.09005C18.7207 6.01207 18.7263 5.93045 18.699 5.84519C18.6691 5.75233 18.606 5.69197 18.5097 5.66415C18.4145 5.63431 18.2991 5.64117 18.1636 5.68476L18.1801 5.76762C18.2579 5.74265 18.3235 5.70642 18.3771 5.65895C18.4302 5.60994 18.4675 5.55597 18.4887 5.49703C18.5102 5.43809 18.511 5.37817 18.4915 5.31725C18.466 5.2381 18.4167 5.18169 18.3438 5.14804C18.2703 5.11287 18.1814 5.09777 18.0772 5.10273C17.974 5.10569 17.8635 5.12778 17.7457 5.16901C17.6641 5.19697 17.5838 5.23457 17.5049 5.28177C17.4259 5.32898 17.3508 5.38255 17.2793 5.44249L17.4716 5.69562C17.5334 5.64722 17.5947 5.60564 17.6558 5.57089C17.7179 5.53412 17.7793 5.50594 17.8403 5.48636C17.8875 5.47119 17.927 5.46351 17.9588 5.46333C17.9918 5.46116 18.0175 5.46548 18.0361 5.47629C18.0558 5.48511 18.0687 5.4994 18.0751 5.51919C18.0814 5.53898 18.0809 5.55845 18.0737 5.57759C18.0675 5.59473 18.0542 5.61077 18.0337 5.62572C18.0129 5.63916 17.9857 5.65125 17.9521 5.66204L17.7238 5.73548L17.8054 5.98897L18.0726 5.90303C18.1228 5.88687 18.1625 5.88249 18.1918 5.88988C18.2211 5.89727 18.2411 5.91772 18.2518 5.95121C18.2596 5.97557 18.2566 6.00007 18.2427 6.02469C18.2299 6.04732 18.2081 6.06858 18.1775 6.08849C18.1465 6.10687 18.1081 6.12341 18.0625 6.1381C17.9863 6.16258 17.9095 6.17972 17.8321 6.18953C17.7545 6.19932 17.6779 6.20129 17.6022 6.19543L17.5843 6.52372C17.6828 6.53236 17.783 6.53039 17.8847 6.51781C17.986 6.5037 18.0846 6.48124 18.1806 6.45039Z" fill="#246E11"/>
<path d="M19.9996 5.92761L19.9454 5.69147L19.9015 5.63999L19.8017 5.20511C19.7857 5.13497 19.7515 5.08622 19.6993 5.05883C19.6483 5.02951 19.5759 5.02559 19.4823 5.04707C19.4215 5.06102 19.3623 5.08529 19.3047 5.11987C19.2467 5.15287 19.1998 5.19155 19.1639 5.23585L18.9451 4.9686C19.006 4.90537 19.0835 4.84985 19.1775 4.80201C19.2727 4.75225 19.3703 4.71591 19.47 4.69302C19.6758 4.64579 19.8457 4.65683 19.9798 4.72615C20.115 4.79355 20.2057 4.92779 20.2519 5.12886L20.4134 5.8326L19.9996 5.92761ZM19.6303 6.03452C19.5291 6.05779 19.4393 6.06031 19.3614 6.04212C19.2833 6.02395 19.2188 5.98953 19.1678 5.93887C19.1183 5.88788 19.0852 5.82575 19.0684 5.75249C19.0505 5.67455 19.0547 5.60307 19.0807 5.53801C19.1079 5.47103 19.1596 5.41326 19.2353 5.36467C19.3108 5.31454 19.414 5.27444 19.5449 5.24438L19.8443 5.17567L19.8974 5.40715L19.6588 5.4619C19.5871 5.47835 19.5391 5.50167 19.515 5.53185C19.4923 5.56167 19.4854 5.59606 19.4943 5.63503C19.5033 5.67399 19.5252 5.70177 19.5603 5.71836C19.5951 5.73494 19.6383 5.73732 19.6899 5.72551C19.7382 5.71443 19.7791 5.69271 19.8127 5.66039C19.8475 5.62615 19.8686 5.58195 19.8758 5.52777L19.9742 5.67748C19.9708 5.77012 19.9401 5.84692 19.8819 5.90788C19.8249 5.96691 19.7411 6.00913 19.6303 6.03452Z" fill="#246E11"/>
<path d="M20.8917 5.73558L20.7305 4.44545L21.2065 4.38591L21.7617 5.1723L21.5737 5.1958L21.961 4.29156L22.3871 4.23828L22.5508 5.52811L22.1437 5.57902L22.0385 4.73638L22.1133 4.77535L21.7986 5.50614L21.6058 5.53023L21.1165 4.86615L21.1925 4.83491L21.2988 5.68468L20.8917 5.73558Z" fill="#246E11"/>
<path d="M23.8536 5.48272L23.848 5.24051L23.8156 5.18128L23.8052 4.7352C23.8036 4.66326 23.7799 4.60862 23.7341 4.57128C23.6901 4.53232 23.62 4.51393 23.5242 4.51616C23.4618 4.5176 23.3989 4.52945 23.3354 4.55173C23.2719 4.57238 23.2181 4.60083 23.1743 4.63704L23.0136 4.33123C23.086 4.28155 23.1732 4.24275 23.2748 4.2148C23.3781 4.18521 23.481 4.16923 23.5832 4.16686C23.7943 4.16198 23.9584 4.20696 24.0759 4.30182C24.1948 4.39505 24.2567 4.54478 24.2615 4.75104L24.2781 5.47289L23.8536 5.48272ZM23.4704 5.5132C23.3666 5.5156 23.2783 5.50005 23.2055 5.46654C23.1327 5.43304 23.0764 5.38635 23.0367 5.32648C22.9984 5.26657 22.9784 5.19905 22.9767 5.12392C22.9749 5.04397 22.9933 4.97477 23.0319 4.91627C23.0722 4.85616 23.1343 4.80993 23.2183 4.77758C23.3023 4.74365 23.4114 4.72513 23.5458 4.72201L23.8527 4.71491L23.8581 4.95233L23.6136 4.958C23.54 4.95969 23.4884 4.97289 23.4586 4.99758C23.4303 5.02222 23.4167 5.05454 23.4176 5.09451C23.4184 5.13448 23.4344 5.16609 23.4653 5.18937C23.4964 5.21265 23.5381 5.22369 23.5909 5.22246C23.6405 5.22131 23.685 5.20829 23.7244 5.18339C23.7653 5.15685 23.7949 5.11776 23.8128 5.06616L23.8791 5.23259C23.8572 5.32267 23.8116 5.39173 23.7423 5.43971C23.6746 5.48608 23.584 5.51056 23.4704 5.5132Z" fill="#246E11"/>
<path d="M25.4177 5.54757C25.2742 5.53827 25.1474 5.50125 25.038 5.43646C24.93 5.37178 24.8473 5.2871 24.79 5.18243C24.7327 5.07616 24.7082 4.9576 24.7167 4.82674C24.7252 4.69587 24.7647 4.58224 24.835 4.48582C24.9054 4.38941 24.9982 4.3169 25.1135 4.26826C25.2305 4.21814 25.3609 4.19773 25.5044 4.20701C25.6513 4.21651 25.7761 4.25584 25.8791 4.32499C25.982 4.39414 26.0521 4.48683 26.0894 4.60302L25.726 4.75981C25.6996 4.6972 25.6649 4.65088 25.622 4.62086C25.5791 4.58925 25.5314 4.57173 25.4786 4.56834C25.426 4.56493 25.3774 4.57379 25.3327 4.59495C25.2881 4.6161 25.2516 4.64899 25.223 4.69362C25.1962 4.73675 25.1806 4.79104 25.1764 4.85646C25.1721 4.9235 25.1804 4.98093 25.2014 5.02875C25.2239 5.07669 25.2559 5.11402 25.2974 5.14074C25.339 5.16747 25.3862 5.18253 25.4388 5.18594C25.4914 5.18934 25.541 5.17893 25.5874 5.15469C25.634 5.12886 25.6743 5.08659 25.7086 5.02792L26.0489 5.23023C25.9969 5.34064 25.9154 5.4235 25.8044 5.47883C25.6935 5.53416 25.5646 5.55707 25.4177 5.54757Z" fill="#246E11"/>
<path d="M27.0887 5.73518C26.9465 5.71334 26.8236 5.66534 26.7201 5.59122C26.6182 5.51731 26.5433 5.42573 26.4953 5.31643C26.4476 5.20555 26.4337 5.08531 26.4537 4.9557C26.4735 4.82608 26.5228 4.71632 26.6012 4.62645C26.6798 4.53658 26.7786 4.47246 26.8977 4.43413C27.0188 4.39446 27.1503 4.38554 27.2926 4.40739C27.438 4.42971 27.559 4.47982 27.6554 4.55774C27.7519 4.63565 27.8135 4.73411 27.8406 4.85314L27.4647 4.97746C27.4439 4.91278 27.4135 4.8636 27.3734 4.82994C27.3335 4.79469 27.2874 4.77306 27.2353 4.76506C27.1831 4.75704 27.1338 4.76162 27.0876 4.77877C27.0412 4.79594 27.0018 4.82549 26.9695 4.86744C26.9391 4.90806 26.9188 4.96078 26.9089 5.02558C26.8986 5.09198 26.902 5.14992 26.9186 5.19939C26.9369 5.24912 26.9655 5.28912 27.0046 5.31938C27.0436 5.34965 27.0892 5.36878 27.1414 5.37678C27.1935 5.3848 27.2438 5.37877 27.2922 5.35869C27.3407 5.33702 27.3847 5.29848 27.4239 5.24302L27.7452 5.47437C27.6838 5.57979 27.5953 5.65522 27.4799 5.70059C27.3646 5.74598 27.2342 5.75752 27.0887 5.73518Z" fill="#246E11"/>
<path d="M28.9927 6.11L28.7548 5.42557L29.1631 5.30453L29.5142 6.23955L28.9927 6.11ZM28.1079 5.89026L28.4214 4.62842L28.8637 4.73829L28.5503 6.00013L28.1079 5.89026ZM28.5316 5.51842L28.6177 5.17154L29.074 5.28488L28.9879 5.63176L28.5316 5.51842ZM29.1535 5.53203L28.7495 5.38719L29.3318 4.85453L29.7996 4.97077L29.1535 5.53203Z" fill="#246E11"/>
<path d="M29.8625 6.34846L30.2979 5.12329L30.7251 5.27507L30.4969 5.91703L31.2382 5.45735L31.6337 5.59788L31.1985 6.82305L30.7691 6.67047L30.9979 6.02625L30.2605 6.48979L29.8625 6.34846Z" fill="#246E11"/>
<path d="M31.6853 7.02307L32.2421 5.84817L32.6519 6.04237L32.36 6.65798L33.1439 6.27558L33.5232 6.45537L32.9664 7.63027L32.5546 7.43507L32.8474 6.81726L32.0667 7.2039L31.6853 7.02307ZM32.9069 6.02518C32.7682 5.95944 32.6792 5.8819 32.6402 5.79259C32.6032 5.70251 32.6128 5.59645 32.6688 5.47437L32.9355 5.60073C32.9143 5.6491 32.9074 5.69182 32.9146 5.72886C32.9239 5.76515 32.9531 5.79494 33.0023 5.81822C33.0514 5.84152 33.0938 5.84563 33.1291 5.83057C33.1653 5.81408 33.1947 5.78198 33.2173 5.7343L33.4882 5.86272C33.4307 5.98411 33.3539 6.05833 33.2579 6.08541C33.164 6.11169 33.0471 6.09163 32.9069 6.02518Z" fill="#246E11"/>
<path d="M35.0023 8.90937C34.9985 8.90665 34.9892 8.9003 34.9747 8.89032C34.9603 8.88033 34.9463 8.87081 34.9332 8.86173C34.9201 8.85265 34.9115 8.84677 34.9076 8.84403C34.6694 8.674 34.5177 8.49665 34.4527 8.312C34.3899 8.12693 34.4215 7.94288 34.5478 7.75985C34.6721 7.57945 34.8305 7.48765 35.0231 7.48441C35.2166 7.47987 35.4374 7.56113 35.6854 7.72821C35.6881 7.73003 35.6959 7.73547 35.7091 7.74454C35.7236 7.75453 35.7374 7.76406 35.7505 7.77313C35.7638 7.78221 35.7716 7.78766 35.7743 7.78947C36.0244 7.96192 36.1852 8.14161 36.2563 8.32859C36.3284 8.51424 36.3014 8.69859 36.1753 8.88161C36.0473 9.06728 35.8823 9.16144 35.6804 9.16408C35.4787 9.16672 35.2526 9.08182 35.0023 8.90937ZM35.1745 8.62592C35.2825 8.70033 35.3748 8.74945 35.4516 8.77328C35.5307 8.79667 35.5996 8.79664 35.6585 8.77315C35.7188 8.75057 35.7726 8.70504 35.8198 8.63657C35.866 8.56942 35.8887 8.50544 35.8879 8.44465C35.8871 8.38387 35.8607 8.32203 35.8089 8.25912C35.758 8.19489 35.6785 8.12558 35.5707 8.05115C35.5679 8.04934 35.5595 8.04344 35.5449 8.03345C35.5305 8.02347 35.5206 8.01667 35.5153 8.01304C35.4139 7.94315 35.3251 7.89742 35.2486 7.87582C35.1743 7.85384 35.1094 7.85371 35.0537 7.87547C34.9991 7.89814 34.9497 7.94174 34.9052 8.00625C34.859 8.07341 34.834 8.13779 34.8303 8.19939C34.8291 8.26059 34.8513 8.32261 34.8974 8.38542C34.9447 8.44913 35.0187 8.51661 35.1191 8.58781C35.1231 8.59053 35.1323 8.59688 35.1468 8.60686C35.1612 8.61685 35.1705 8.6232 35.1745 8.62592ZM34.5598 9.12877L35.834 7.28003L36.1659 7.50875L34.8916 9.35749L34.5598 9.12877Z" fill="#246E11"/>
<path d="M36.1523 9.70845L37.0047 8.72656L37.3471 9.02376L36.9003 9.53824L37.7583 9.38071L38.0752 9.65589L37.2229 10.6378L36.8787 10.339L37.3269 9.82269L36.4712 9.9852L36.1523 9.70845Z" fill="#246E11"/>
<path d="M37.5117 10.9073L37.7951 10.6659C37.8016 10.6752 37.8077 10.6838 37.8132 10.6919C37.8197 10.6989 37.8256 10.7053 37.8312 10.7111C37.8586 10.7402 37.8871 10.7562 37.9164 10.7593C37.948 10.7625 37.9804 10.7561 38.0136 10.74C38.048 10.7252 38.0837 10.7036 38.1207 10.6752C38.16 10.6469 38.2005 10.6141 38.2423 10.5768L38.6496 10.2185L39.4567 11.073L38.5116 11.9658L38.1986 11.6345L38.9554 10.9196L38.9496 11.0636L38.5922 10.6852L38.7365 10.6808L38.5034 10.8812C38.4152 10.9579 38.3308 11.0234 38.2501 11.0777C38.1716 11.132 38.097 11.1706 38.0261 11.1935C37.9554 11.2163 37.8874 11.2201 37.8223 11.2046C37.7594 11.1893 37.6988 11.1508 37.6405 11.0892C37.6197 11.0671 37.5984 11.0399 37.5767 11.0076C37.5549 10.9776 37.5333 10.9441 37.5117 10.9073Z" fill="#246E11"/>
<path d="M38.8606 12.3685L39.8894 11.5735L40.1667 11.9322L39.6276 12.3488L40.4996 12.3631L40.7564 12.6953L39.7276 13.4903L39.4489 13.1297L39.9899 12.7116L39.1188 12.7026L38.8606 12.3685Z" fill="#246E11"/>
<path d="M40.437 14.5764L40.6418 14.447L40.6757 14.3886L41.053 14.1503C41.1138 14.1119 41.1485 14.0635 41.157 14.0051C41.1679 13.9473 41.1476 13.8778 41.0964 13.7966C41.0629 13.7439 41.0205 13.6961 40.9687 13.6531C40.9183 13.6093 40.8663 13.5778 40.8127 13.5587L40.9922 13.2637C41.0721 13.3002 41.1501 13.355 41.2265 13.4278C41.305 13.5012 41.3716 13.5811 41.4263 13.6677C41.5389 13.8461 41.5849 14.0101 41.5639 14.1595C41.5452 14.3095 41.4485 14.4395 41.2741 14.5497L40.6637 14.9354L40.437 14.5764ZM40.2137 14.2635C40.1581 14.1756 40.1261 14.0918 40.1173 14.0122C40.1087 13.9326 40.1197 13.8603 40.1506 13.7954C40.1825 13.7318 40.23 13.68 40.2935 13.6398C40.3612 13.5971 40.43 13.5773 40.5001 13.5803C40.5722 13.5839 40.6439 13.6134 40.7148 13.6688C40.7871 13.7234 40.8591 13.8074 40.9309 13.921L41.0949 14.1806L40.8941 14.3075L40.7634 14.1006C40.7241 14.0384 40.6863 14.0009 40.6497 13.988C40.6141 13.9765 40.5793 13.9814 40.5455 14.0027C40.5117 14.0241 40.4929 14.054 40.4887 14.0925C40.4847 14.131 40.4967 14.1726 40.525 14.2172C40.5514 14.2591 40.5855 14.2906 40.6271 14.3115C40.6709 14.333 40.7196 14.3382 40.7732 14.3271L40.6645 14.4695C40.5761 14.4971 40.4933 14.4935 40.4165 14.4588C40.342 14.4246 40.2743 14.3594 40.2137 14.2635Z" fill="#246E11"/>
<path d="M40.8484 15.2415L41.1884 15.0898C41.1921 15.1005 41.1954 15.1105 41.1983 15.1198C41.2026 15.1283 41.2066 15.1362 41.2103 15.1433C41.2284 15.1789 41.2511 15.2023 41.2783 15.2136C41.3077 15.2255 41.3407 15.2285 41.3772 15.2225C41.4143 15.2179 41.4546 15.2073 41.4982 15.1905C41.5438 15.1744 41.5919 15.1544 41.6425 15.1304L42.1343 14.9014L42.6679 15.9487L41.5093 16.539L41.3025 16.1327L42.2301 15.6602L42.1839 15.7968L41.9476 15.333L42.0874 15.3695L41.8073 15.496C41.701 15.5448 41.6017 15.5838 41.5089 15.6131C41.4181 15.6431 41.3358 15.6591 41.2614 15.6611C41.187 15.6631 41.1207 15.6475 41.0625 15.6143C41.0065 15.5818 40.9593 15.5278 40.9207 15.4523C40.907 15.4252 40.8943 15.3931 40.8825 15.356C40.8702 15.3211 40.8586 15.2829 40.8484 15.2415Z" fill="#246E11"/>
<path d="M44.0452 18.4704L44.1934 18.9217L42.5978 19.4452L42.4497 18.994L44.0452 18.4704ZM42.2478 18.3785L42.0996 17.9273L43.6951 17.4038L43.8433 17.855L42.2478 18.3785ZM43.0825 18.8217L42.8596 18.1425L43.2334 18.0198L43.4562 18.699L43.0825 18.8217Z" fill="#246E11"/>
<path d="M44.6155 20.7471L44.712 21.212L43.0678 21.5531L42.9713 21.0882L44.6155 20.7471ZM42.8396 20.4539L42.7432 19.9888L44.3875 19.6477L44.484 20.1128L42.8396 20.4539ZM43.6193 20.988L43.4742 20.288L43.8593 20.2082L44.0046 20.908L43.6193 20.988Z" fill="#246E11"/>
<path d="M43.1428 22.1128L44.8129 21.9377L44.9412 23.1616L44.5665 23.1985L44.4761 22.3373L44.5921 22.4312L43.1916 22.5781L43.1428 22.1128Z" fill="#246E11"/>
<path d="M43.6766 23.8814C43.6502 23.9759 43.642 24.0527 43.6523 24.1118C43.664 24.1724 43.7044 24.2257 43.7736 24.2714L43.8942 24.3519L43.9401 24.3924L44.9883 24.906L44.9923 25.369L43.6884 24.6849C43.56 24.6172 43.4601 24.5358 43.3889 24.4404C43.3177 24.3466 43.2768 24.2431 43.2662 24.1295C43.2556 24.0161 43.2753 23.8969 43.3254 23.7716L43.6766 23.8814ZM43.5587 24.3886L44.9768 23.6084L44.9812 24.1097L43.8968 24.6446L43.5587 24.3886Z" fill="#246E11"/>
</g>
</g>
<defs>
<clipPath id="clip0_36_753">
<rect width="48" height="48" fill="white"/>
</clipPath>
</defs>
</svg>
