<svg width="24" height="24" viewBox="0 0 24 24" fill="none" xmlns="http://www.w3.org/2000/svg">
<g clip-path="url(#clip0_16_304)">
<path d="M11.9296 8.80664C10.1041 8.80664 8.77832 10.1877 8.77832 12.0893C8.77832 14.0127 10.0739 15.3553 11.9296 15.3553C13.7854 15.3553 15.0814 14.0127 15.0814 12.0893C15.0814 10.1877 13.7557 8.80664 11.9296 8.80664Z" fill="#1C6031"/>
<path d="M12.0003 0C5.37251 0 0 5.37303 0 12C0 18.6266 5.37251 23.999 12.0003 23.999C18.6265 23.999 24 18.6267 24 12C24 5.37303 18.6265 0 12.0003 0ZM16.9573 17.0085C16.0343 17.0085 15.3079 16.317 15.1286 15.3369C15.1255 15.3407 15.1223 15.3438 15.1192 15.3471C14.3039 16.1875 13.1715 16.6495 11.9297 16.6495C10.6886 16.6495 9.55574 16.1875 8.74062 15.3471C7.93036 14.5116 7.48425 13.3552 7.48425 12.0894C7.48425 10.824 7.92999 9.66477 8.73952 8.82508C9.55567 7.9784 10.6889 7.51235 11.9297 7.51235C13.1712 7.51235 14.304 7.9784 15.1204 8.82508L15.123 8.82787C15.2125 8.57664 15.4519 8.39618 15.7343 8.39618C16.0911 8.39618 16.3817 8.68567 16.3817 9.0432V14.8616C16.3817 15.4151 16.6781 15.7142 16.9573 15.7142C17.8138 15.7142 18.4131 14.2703 18.4131 12.2039C18.4131 8.40229 15.7437 5.64346 12.0644 5.64346C8.31077 5.64346 5.58747 8.38169 5.58747 12.1549C5.58747 15.7482 8.22198 18.3557 11.8532 18.3557C12.6555 18.3557 13.7797 18.0802 14.4672 17.714C14.7833 17.5463 15.1756 17.6663 15.3434 17.9817C15.5108 18.297 15.3909 18.6894 15.0749 18.8569C14.2118 19.3168 12.8558 19.6503 11.8532 19.6503C9.74915 19.6503 7.82707 18.8954 6.44313 17.5246C5.05684 16.1517 4.29314 14.2442 4.29314 12.1549C4.29314 9.97927 5.07508 7.99429 6.4961 6.56576C7.91962 5.13629 9.89702 4.34912 12.0644 4.34912C14.1975 4.34912 16.1445 5.14328 17.543 6.58379C18.9387 8.02018 19.707 10.0161 19.707 12.2039C19.707 15.1228 18.6272 17.0085 16.9573 17.0085Z" fill="#1C6031"/>
</g>
<defs>
<clipPath id="clip0_16_304">
<rect width="24" height="24" fill="white"/>
</clipPath>
</defs>
</svg>
