<svg width="1440" height="659" viewBox="0 0 1440 659" fill="none" xmlns="http://www.w3.org/2000/svg">
<mask id="mask0_85_1764" style="mask-type:luminance" maskUnits="userSpaceOnUse" x="0" y="0" width="1440" height="659">
<path d="M1440 0H0V659H1440V0Z" fill="white"/>
</mask>
<g mask="url(#mask0_85_1764)">
<g filter="url(#filter0_d_85_1764)">
<path fill-rule="evenodd" clip-rule="evenodd" d="M87 0H0V659C48.273 538.257 280.021 524.901 425.075 511.517C547.797 500.193 670.738 488.85 735.654 412.435C803.852 336.54 976.8 331.875 1134 327.635C1290.97 323.401 1432.23 319.591 1437.78 245.7C1442.78 114.99 1437.78 127.125 1437.78 127.125V0H87Z" fill="url(#paint0_linear_85_1764)"/>
<path d="M150.076 3.85793C150.076 4.28503 153.203 10.5485 156.956 17.8085C160.708 24.9261 163.835 31.6167 163.835 32.6132C163.835 34.6061 157.706 34.8908 153.329 32.8979C151.452 32.1861 150.076 32.0437 150.076 32.7555C150.076 33.4673 151.828 34.4637 153.829 34.8908C155.955 35.3179 159.207 36.172 161.334 36.599C163.335 37.0261 165.461 38.0226 165.837 38.8767C166.587 40.1578 167.338 68.486 166.712 68.486C166.462 68.486 162.96 65.7813 158.707 62.6496C154.579 59.3754 150.952 57.0978 150.577 57.5249C150.202 57.9519 152.328 60.2296 155.33 62.5072C158.332 64.9272 162.459 68.9131 164.586 71.618C168.964 76.885 174.592 87.988 173.592 89.127C172.466 90.408 163.835 84.002 163.835 81.867C163.835 80.728 162.96 79.874 161.834 79.874C160.083 79.874 160.083 80.301 161.334 82.01C163.21 84.572 162.459 84.572 155.705 82.579C152.953 81.867 144.948 81.298 137.818 81.298C125.686 81.44 124.685 81.155 121.058 77.739C117.305 74.18 107.549 67.7743 107.549 69.0554C107.549 69.3401 110.426 71.902 113.803 74.75C120.057 79.874 121.683 82.721 118.306 82.721C117.305 82.721 116.179 83.148 115.929 83.718C115.554 84.43 123.309 84.857 132.94 84.857C149.451 84.857 161.334 86.992 161.334 89.839C161.334 91.974 153.954 98.522 151.828 98.38C150.452 98.238 148.325 98.238 146.949 98.38C145.198 98.522 145.574 98.949 148.45 99.946L152.328 101.227L150.577 107.918C149.576 111.477 148.826 115.178 148.826 116.032C148.826 118.594 150.952 114.893 152.453 109.768C153.203 106.921 155.58 102.366 157.706 99.377C163.46 91.405 167.463 91.974 176.844 102.366C185.6 111.761 195.731 129.555 193.855 131.691C191.854 133.968 192.354 137.812 196.357 148.631C201.11 161.727 205.112 180.945 205.112 190.482C205.112 195.037 203.861 201.728 201.985 207.422C200.234 212.547 198.858 218.668 198.858 220.946C198.858 228.633 193.23 224.932 189.477 214.682C188.476 211.835 187.226 204.433 186.725 198.454C185.725 184.503 184.099 178.667 183.848 188.774C183.723 197.742 182.598 200.02 178.845 198.739C176.093 197.742 176.218 198.027 179.846 203.152C185.474 210.839 184.849 212.547 178.845 205.856C173.342 199.735 173.091 198.312 175.343 188.774C176.719 183.08 176.594 181.656 173.842 174.254C170.84 165.998 169.839 154.182 171.841 148.915C172.466 146.922 172.466 146.638 171.59 148.061C170.59 149.485 170.215 148.915 169.464 145.499C168.714 141.655 169.214 140.374 171.841 137.527C176.969 132.118 175.968 126.708 170.465 130.694C168.463 132.26 167.588 133.968 167.963 135.676C168.338 137.1 168.088 137.812 167.338 137.385C166.462 136.815 166.337 137.954 166.962 140.801C168.213 147.349 168.088 156.745 166.712 158.311C165.837 159.307 164.086 158.453 161.584 156.175C157.456 152.047 156.08 151.62 157.081 154.325C157.706 156.318 153.203 163.862 151.202 163.862C150.577 163.862 149.951 157.599 149.826 149.912C149.701 142.367 149.451 138.666 149.201 141.798C148.45 150.908 147.95 151.762 144.948 148.061C142.572 144.787 142.446 144.787 143.697 147.776C144.448 149.485 145.699 151.335 146.324 151.762C147.074 152.189 147.575 154.609 147.575 156.887V161.158L141.946 156.46C138.944 153.898 134.441 150.196 132.065 148.203C129.688 146.211 126.936 143.079 125.811 141.086C124.81 139.093 122.433 135.534 120.557 133.256L117.305 128.986L120.307 133.968C125.686 142.794 125.686 143.221 120.557 139.662C117.93 137.812 114.053 135.107 112.177 133.541C110.175 132.118 108.299 131.264 107.799 131.833C107.299 132.402 107.549 133.114 108.174 133.399C111.551 134.822 135.567 153.898 136.693 156.033C138.319 159.307 135.942 161.727 128.187 164.432C124.81 165.571 123.059 166.567 124.31 166.567C125.686 166.709 129.688 165.713 133.19 164.432C142.822 160.873 144.948 162.012 150.327 174.112C152.953 179.806 154.704 184.646 154.454 184.93C153.329 186.354 144.698 181.514 143.322 178.809C142.572 177.243 141.571 175.678 141.196 175.25C140.82 174.823 139.695 172.973 138.944 171.265C138.069 169.414 137.068 168.133 136.818 168.56C136.067 169.414 138.819 176.816 141.071 179.806C142.822 182.226 142.572 182.368 138.194 182.368C131.189 182.368 133.316 183.507 143.072 185.073C147.825 185.785 151.953 186.923 152.328 187.35C152.703 187.778 151.452 189.77 149.451 191.621C144.823 195.892 145.949 196.176 151.828 192.19L156.331 189.201L160.333 193.045C162.585 195.18 165.336 199.308 166.462 202.155C167.713 205.287 170.465 208.703 173.091 210.554C178.97 214.54 178.845 216.533 172.466 216.533C166.087 216.533 163.085 214.682 159.958 208.988C157.957 205.429 157.581 205.145 158.207 207.849C158.832 209.985 158.457 211.55 157.581 212.262C156.581 212.974 158.832 214.54 163.71 216.533L171.465 219.807L166.837 225.359C160.959 232.049 162.084 232.334 169.589 225.786C172.716 223.081 176.344 220.803 177.719 220.803C181.597 220.803 190.853 231.48 193.98 239.736C196.482 246.142 196.857 249.559 196.857 264.221C196.982 283.154 196.482 284.72 188.852 293.403L183.973 298.955L182.723 294.542C181.972 292.122 181.347 288.99 181.347 287.567C181.347 286.143 179.971 283.866 178.22 282.3C176.469 280.734 175.093 278.456 175.093 277.175C175.093 275.894 174.717 274.897 174.217 274.897C173.592 274.897 171.59 271.339 169.589 267.068C165.712 258.669 160.708 252.121 158.082 252.121C155.205 252.121 156.08 255.68 160.208 260.093C163.71 263.794 173.216 284.15 175.718 293.261C176.594 296.677 176.469 296.677 170.715 295.823C167.463 295.254 162.334 293.546 159.332 292.122C152.578 288.706 152.078 290.556 158.582 294.969C173.467 304.934 177.594 310.343 177.594 319.881C177.594 327.425 172.341 337.532 161.084 351.198C155.955 357.319 149.701 365.861 147.074 369.989C137.693 384.794 131.94 385.221 114.553 372.551C99.919 361.875 96.542 358.174 91.663 347.497C88.661 340.807 88.161 338.102 88.286 328.991C88.536 311.624 91.288 309.204 104.172 314.187C107.299 315.468 110.926 316.18 112.177 315.895C113.428 315.61 111.426 314.471 107.674 313.617C103.921 312.621 100.044 311.055 99.168 310.201C96.542 307.781 100.794 303.368 105.673 303.368C107.924 303.368 111.802 301.802 114.303 299.809C116.805 297.816 119.682 296.25 120.557 296.25C121.433 296.25 123.684 294.969 125.56 293.261C128.062 290.983 128.813 289.133 128.813 284.72C128.813 280.876 128.312 279.168 127.061 279.168C124.059 279.168 117.555 287.14 117.555 290.841C117.555 295.396 113.928 298.955 108.299 300.094C103.421 300.948 102.796 299.809 105.673 295.396C107.924 291.98 108.049 289.702 105.798 291.837C104.422 293.118 103.921 293.118 103.421 291.695C102.921 290.556 102.671 290.698 102.671 292.264C102.42 296.962 99.544 302.087 95.416 304.934C90.288 308.635 88.912 307.638 91.288 301.517C92.164 298.955 92.914 294.684 92.914 291.98C92.914 289.275 92.789 284.72 92.789 282.015C92.789 279.31 92.789 269.488 92.914 260.235C93.164 240.875 93.289 240.59 104.547 237.743C108.299 236.747 111.927 235.181 112.677 234.042C114.428 231.764 114.053 231.764 107.549 234.327C100.919 237.032 95.041 237.174 95.041 234.612C95.041 232.619 103.171 210.554 107.549 200.874C108.925 197.742 109.55 195.18 108.925 195.18C108.299 195.18 106.173 199.308 104.297 204.433C100.544 214.255 99.293 215.536 98.418 210.412C98.168 208.703 97.792 210.412 97.667 214.397C97.542 218.526 96.291 224.647 94.415 229.06C90.538 238.74 88.536 251.551 89.537 260.662C90.538 268.918 88.536 275.751 84.659 277.175C81.532 278.314 78.78 274.613 78.78 269.203C78.78 267.068 77.529 264.079 75.778 262.228L72.776 258.954L75.153 253.117C76.403 249.843 77.404 245.857 77.404 244.292C77.404 242.441 76.529 243.722 75.028 247.423C73.652 250.84 72.151 253.544 71.525 253.544C69.024 253.544 65.146 247.423 63.145 240.448C61.894 236.32 60.393 232.192 59.768 231.48C57.516 228.775 64.771 249.559 67.147 252.548C69.399 255.537 72.776 266.071 74.402 275.467C74.777 277.744 77.154 281.588 79.531 284.008C85.785 290.271 86.66 292.407 85.034 299.097C83.158 307.211 80.781 306.5 81.782 297.958C82.407 292.834 82.282 291.837 81.282 293.688C79.03 297.816 76.779 296.677 72.651 289.56C69.274 283.866 68.774 283.438 68.774 286.428C68.774 288.278 70.024 292.122 71.525 294.827C74.277 299.951 80.031 312.763 80.031 314.044C80.031 314.329 79.155 314.329 78.03 313.76C76.403 313.048 76.153 313.617 76.904 316.322C77.279 318.173 78.03 320.877 78.28 322.158C79.781 328.137 77.029 327.71 71.775 321.02C67.273 315.325 66.272 313.048 66.272 308.35C66.272 297.531 59.643 278.456 53.013 269.915C47.3846 262.655 46.2588 259.95 45.008 251.409C44.3826 246.854 43.2569 242.441 42.5064 241.587C41.7559 240.733 41.7559 241.872 42.5064 245.146C44.3826 252.406 44.1325 252.975 40.5051 249.131C37.6282 246.142 36.1273 245.715 26.7461 245.715C20.9924 245.715 16.2393 246.142 16.2393 246.712C16.2393 247.281 19.4914 247.993 23.494 248.562C33.5005 249.843 33.6256 249.986 29.3729 252.548C27.3716 253.829 26.2458 254.826 26.8712 254.826C27.6217 254.826 29.4979 253.971 31.2491 252.833C33.0002 251.694 35.0015 250.84 35.8771 250.697C37.5032 250.697 48.7605 266.356 51.762 273.047L53.764 277.602L49.3859 278.599C46.8843 279.026 41.1305 279.026 36.5025 278.599C30.8738 277.887 28.7475 278.029 29.9983 279.026C30.8738 279.737 36.0022 280.734 41.2556 281.303C54.639 282.584 56.015 283.011 57.891 287.424C58.892 289.56 60.018 296.677 60.518 303.368C61.519 317.461 64.771 326.429 72.651 336.678C76.904 342.088 77.904 344.508 78.03 349.348C78.155 353.903 79.405 357.177 82.908 362.871C90.913 375.256 88.912 376.964 71.901 372.694C64.771 370.843 62.394 369.419 59.142 365.434C55.14 360.451 54.264 357.177 55.765 352.622C56.265 350.914 57.766 350.629 61.644 351.198C66.022 351.768 67.523 351.198 70.525 348.067C73.402 345.077 73.777 344.081 72.401 343.084C69.774 341.234 62.019 341.518 60.143 343.511C59.017 344.792 59.142 343.796 60.518 340.807C63.77 333.404 62.77 332.265 59.017 339.098C55.015 345.931 50.387 351.198 49.2608 350.06C48.8856 349.49 46.8843 342.515 44.8829 334.543C42.7566 326.429 40.0048 317.176 38.754 314.044C36.5025 308.35 36.5025 308.35 36.3774 312.621C36.3774 314.898 37.3781 319.738 38.754 323.155C40.1299 326.571 41.2556 329.845 41.2556 330.557C41.2556 333.262 38.2536 331.554 34.251 326.571C27.7468 318.457 29.2478 322.728 36.0022 331.696C39.3794 336.109 42.8816 342.23 43.7572 345.362C44.6328 348.494 46.3839 353.334 47.7598 356.181C51.387 363.583 50.261 365.434 45.008 361.448C42.5064 359.455 39.3794 354.899 37.253 349.917C35.2517 345.504 32.8751 341.803 31.8745 341.803C30.8738 341.803 29.9983 341.234 29.9983 340.664C29.9983 339.241 27.1214 335.824 20.9924 329.418C15.9891 324.436 6.2328 318.6 6.2328 320.592C6.2328 321.447 7.9839 322.728 9.9852 323.44C13.9878 325.005 14.7383 326.856 12.2367 327.995C11.3611 328.422 11.7364 328.707 13.1123 328.564C16.3644 328.422 21.7429 332.55 24.3696 337.105C25.4953 338.956 26.2458 340.807 25.9957 341.091C25.7455 341.376 23.3689 340.522 20.6172 339.241C17.8654 338.102 12.1116 336.963 7.8589 336.821C1.4797 336.678 -0.5216 336.109 -3.1483 333.262C-5.9001 330.415 -6.2753 330.272 -5.5249 332.408C-4.7744 334.685 -5.0245 334.97 -7.0258 334.116C-9.5275 332.977 -20.6597 330.415 -22.9112 330.415C-25.9131 330.415 -22.1607 332.408 -18.2832 332.835C-15.9066 333.12 -10.7783 334.543 -6.9008 336.109C-2.8981 337.675 3.1058 338.956 6.483 338.956C9.9852 338.956 14.6133 340.095 17.24 341.661C19.7416 343.084 23.6191 344.65 25.6204 345.22C30.4986 346.643 33.7507 350.059 33.7507 353.903C33.7507 360.736 42.5064 368.423 55.64 373.121C62.895 375.683 70.024 380.523 70.024 382.658C70.024 386.359 66.272 386.217 56.766 381.804C48.01 377.818 35.3768 374.402 29.3729 374.687C26.8712 374.687 42.0061 379.526 47.6347 380.523C51.637 381.092 51.512 384.224 47.2595 387.783C44.883 389.776 40.8803 391.057 34.7514 391.626C26.496 392.481 26.2458 392.623 32.1246 392.908C35.6269 392.908 42.6315 392.054 47.3846 390.915C54.514 389.206 57.641 389.206 62.77 390.345C67.648 391.626 71.4 391.484 77.904 390.203C86.41 388.495 86.535 388.495 94.415 392.908C102.921 397.748 110.676 406.431 111.551 412.268C111.927 414.118 111.176 418.389 109.8 421.805C108.174 426.076 107.674 429.492 108.174 433.051C108.8 436.895 108.299 439.884 106.423 444.155C104.922 447.286 103.796 450.845 103.796 451.984C103.796 455.97 81.157 495.117 65.897 517.324C57.891 529.281 47.8849 543.944 43.7572 550.065C26.3709 575.404 14.6133 599.746 3.9813 632.202C0.4791 642.736 0.3752 640.864 0 643V659C15.5 622 51 593 84.5 577C91.88 559.063 98.418 534.264 100.669 528.712C106.048 515.616 110.175 508.783 120.307 496.256C129.813 484.44 130.314 483.586 134.566 468.497C138.694 453.265 140.945 450.845 153.329 447.856C174.968 442.731 175.343 442.589 173.842 440.88C173.091 440.026 167.963 439.315 161.209 439.315H149.951L155.955 433.193C159.207 429.777 164.836 423.941 168.213 420.097C175.968 411.556 186.85 405.577 193.48 406.146C197.732 406.573 198.733 407.428 203.486 415.684C206.488 420.809 208.99 425.506 209.24 426.361C209.615 427.215 210.241 427.499 210.741 426.93C211.241 426.36 210.491 422.659 209.115 418.673C205.112 407.855 205.613 407.285 221.248 407.001C238.634 406.716 238.884 406.716 243.262 407.855C246.764 408.851 246.889 408.851 244.638 406.716C242.887 405.008 239.385 404.438 232.13 404.438H221.998L227.001 400.595C229.753 398.459 233.631 395.755 235.632 394.474C240.26 391.769 240.385 389.634 236.007 389.064C232.005 388.495 228.878 390.915 228.878 394.474C228.878 395.897 227.877 397.463 226.751 397.89C225.501 398.459 222.874 399.883 220.873 401.164C217.62 403.157 216.244 403.157 208.615 401.591C199.609 399.598 197.232 398.032 200.985 396.751C202.235 396.324 207.739 392.908 213.243 389.349L223.249 382.658L238.009 382.801H252.893L259.648 388.068C266.527 393.477 266.902 394.189 268.278 405.862C268.654 409.421 269.904 413.691 270.905 415.399C272.781 418.673 279.911 423.656 281.037 422.375C281.412 422.09 279.911 420.666 277.785 419.528C275.658 418.246 273.407 415.969 272.656 414.545C271.03 410.986 271.03 400.168 272.656 400.168C273.282 400.168 275.408 402.73 277.159 405.862C279.536 409.848 282.037 412.125 286.29 413.833C289.417 415.257 294.17 418.673 296.672 421.663C299.299 424.652 302.426 427.357 303.927 427.926C305.302 428.353 306.428 429.35 306.428 430.062C306.428 430.773 307.429 431.2 308.68 431.058C312.057 430.773 317.686 435.756 318.436 439.884C319.562 445.863 319.937 446.717 320.062 443.158C320.187 441.45 320.813 440.026 321.438 440.026C322.689 440.026 333.946 456.539 333.946 458.39C333.946 458.959 335.947 460.24 338.324 461.237C342.201 462.803 342.702 463.515 342.702 467.927C342.702 473.195 345.454 477.892 347.705 476.326C348.33 475.899 348.956 473.906 348.956 471.913C348.956 470.063 349.581 468.497 350.207 468.497C353.209 468.497 350.957 465.223 344.328 460.383C335.697 454.119 330.194 448.71 330.194 446.432C330.194 444.155 316.185 429.635 311.932 427.357C309.93 426.36 306.929 424.795 305.177 423.798C300.925 421.521 296.547 412.268 298.548 409.99C299.799 408.566 301.175 408.566 304.927 409.848C307.679 410.844 311.682 411.556 314.058 411.556C317.435 411.556 319.187 412.837 323.064 417.535C325.816 420.951 327.067 422.09 325.941 420.097C321.188 411.698 321.188 411.841 324.94 410.986C328.192 410.275 330.819 410.417 340.826 412.125L345.829 412.979L337.073 408.709L341.076 409.563C346.079 410.559 349.581 408.424 352.083 403.015C354.71 397.321 354.585 397.321 348.956 397.321C344.078 397.321 342.827 398.175 338.699 404.865C336.072 408.993 317.811 408.709 309.18 404.438C304.177 402.018 301.55 401.449 297.923 402.303C295.421 402.872 291.794 403.584 289.917 404.011C286.165 404.865 279.911 400.595 277.659 395.755C275.658 391.626 278.16 392.338 283.163 397.463L287.541 401.733L287.291 397.748C287.041 394.046 287.416 393.762 291.418 393.619C293.795 393.619 297.172 393.335 298.923 393.192C301.925 392.908 301.925 392.908 299.549 391.199C298.173 390.345 291.919 389.206 285.665 388.637C273.907 387.783 267.528 385.078 264.651 379.954C262.775 376.537 264.026 375.683 273.157 374.971C280.411 374.259 281.912 374.544 287.041 377.961C295.296 383.512 328.568 391.057 331.319 388.068C331.57 387.641 329.944 387.356 327.567 387.214C325.19 387.071 321.938 386.502 320.187 385.932C318.061 385.078 319.562 384.794 325.19 385.078C329.693 385.363 336.072 386.644 339.325 388.068C343.828 389.918 345.704 390.203 346.829 388.922C347.83 387.783 347.205 387.356 344.328 387.356C342.076 387.356 340.075 386.786 339.7 386.075C338.824 384.509 342.702 383.512 355.585 382.374C365.842 381.377 368.844 378.957 359.963 378.672L354.585 378.53L358.587 377.249C364.091 375.398 366.467 370.985 366.467 362.871C366.467 359.028 366.217 356.038 365.842 356.038C364.091 356.038 355.21 363.441 353.959 365.861C353.334 367.427 352.708 370.843 352.708 373.69C352.708 378.388 352.458 378.672 347.455 379.384C335.072 381.092 306.428 381.946 306.428 380.523C306.428 378.103 311.056 377.106 313.933 378.815C315.934 380.096 317.31 379.811 320.187 377.818C324.815 374.829 324.94 373.405 320.687 371.697C316.185 369.704 316.185 369.704 310.056 375.256C307.054 377.961 303.927 380.238 303.051 380.238C302.301 380.238 296.422 377.391 290.043 373.832C279.911 368.281 277.409 367.427 270.28 367.427C255.395 367.427 247.765 359.597 256.771 353.618C259.022 352.052 262.9 350.06 265.276 349.063C267.653 348.209 273.657 344.365 278.785 340.38C288.041 333.262 289.792 332.55 303.551 331.269C307.929 330.842 314.684 329.134 318.811 327.568C325.19 325.148 327.192 325.005 333.321 326.287C342.201 328.137 354.71 336.394 367.468 348.921C395.236 375.968 398.488 378.815 404.992 381.235C413.998 384.509 416.5 387.498 415.624 393.762C414.624 400.737 417 406.289 423.379 411.413C426.381 413.833 429.008 415.826 429.383 415.826C429.758 415.826 430.384 412.695 430.884 408.851C432.01 399.598 429.884 394.616 423.379 390.915C420.502 389.349 416.875 386.929 415.249 385.363L412.122 382.801L417.5 383.655C424.255 384.794 438.264 391.342 441.641 394.901C444.143 397.463 444.268 398.744 443.517 408.282C442.767 417.108 443.142 420.524 445.394 428.353C446.895 433.621 448.896 438.888 449.772 440.026C452.148 442.873 452.023 440.453 449.021 430.773C447.27 424.937 446.895 422.09 447.895 421.521C448.771 420.809 448.521 420.097 447.145 419.528C445.394 418.816 445.143 417.535 445.894 413.264C446.269 410.417 447.145 407.428 447.77 406.716C448.896 405.435 456.401 411.698 463.155 419.385C466.282 422.944 466.658 423.086 465.407 420.382L463.781 416.965L471.16 417.819L478.415 418.673L469.91 415.969C465.282 414.545 460.278 412.125 458.777 410.702C453.649 405.292 448.145 393.05 451.022 393.05C451.398 393.05 455.775 395.043 460.654 397.463C469.409 401.876 469.659 401.876 477.915 400.168C485.545 398.459 486.796 398.602 489.798 400.879C491.674 402.161 492.674 402.445 492.174 401.449C491.424 400.168 491.674 400.025 493.55 401.022C494.801 401.733 503.431 402.303 512.562 402.303C531.7 402.303 530.199 401.306 537.329 417.962C539.705 423.371 542.832 430.204 544.208 432.909C546.334 437.037 546.585 437.322 546.084 434.332C545.834 432.339 544.083 426.93 542.332 422.232C539.08 413.549 538.079 405.862 540.331 405.862C540.956 405.862 544.083 407.712 547.085 409.99C550.712 412.552 556.216 414.688 562.22 415.969C567.348 416.965 571.601 418.246 571.601 418.958C571.601 419.528 572.351 419.67 573.352 419.243C575.478 418.246 584.359 423.229 590.738 429.065C593.365 431.343 595.867 432.909 596.242 432.339C597.493 430.916 594.116 427.499 585.735 421.948C576.854 415.969 577.855 414.118 587.861 417.819C591.239 419.101 595.241 420.097 596.867 419.955H599.744L596.992 418.389C594.115 416.823 593.115 414.403 595.116 414.403C595.742 414.403 596.867 412.837 597.618 410.844C598.994 407.57 598.869 407.285 595.867 407.285C594.115 407.285 591.489 408.851 589.863 410.702C587.111 414.118 586.861 414.261 574.853 412.979C568.099 412.268 561.094 410.702 559.343 409.563C543.207 399.456 528.698 395.328 513.938 396.609C499.179 397.89 490.298 393.477 490.298 385.078C490.298 379.242 496.302 377.391 514.689 377.391C530.324 377.391 530.449 377.391 531.575 380.95C532.826 384.651 538.454 388.637 539.955 386.786C540.456 386.217 539.83 383.655 538.579 380.95C536.078 375.683 532.45 374.117 523.695 374.544C513.938 375.256 507.684 374.544 508.435 373.121C508.81 372.267 511.437 371.697 514.063 371.697C520.818 371.697 525.321 367.142 526.196 359.17L526.947 353.049L523.319 354.045C515.94 356.038 512.938 358.743 511.437 364.722C509.56 371.412 508.31 372.409 499.054 373.832C491.174 374.971 489.672 375.683 480.542 382.801C473.537 388.21 468.909 388.922 458.777 385.79C452.899 384.082 452.648 381.092 458.027 377.961C461.779 375.683 472.786 374.971 475.288 376.679C477.415 378.103 484.919 373.405 487.796 368.85C491.048 363.725 496.802 360.594 511.061 356.038C516.565 354.33 522.944 351.483 525.321 349.917C531.074 346.216 537.203 347.355 543.958 353.618C546.71 356.181 550.462 359.312 552.213 360.878C554.089 362.302 556.466 365.718 557.467 368.423C559.218 373.405 573.977 390.915 575.103 389.491C575.478 389.064 572.351 384.651 568.099 379.669C560.594 370.843 558.968 367.142 561.594 365.291C562.22 364.864 564.596 365.576 566.848 366.857C570.6 369.135 570.85 369.135 569.224 366.999C567.848 365.007 567.848 364.437 569.599 363.725C570.725 363.156 572.727 363.868 573.977 365.149C576.229 367.569 582.858 368.281 582.858 366.288C582.858 363.583 577.855 360.024 574.978 360.594L572.101 361.163L574.353 356.181C577.605 349.063 583.984 347.355 596.617 350.487L602.871 352.052L602.996 357.889C603.121 361.163 603.372 362.587 603.747 361.021C604.872 355.469 606.248 356.038 614.003 365.291C622.134 374.971 626.011 377.249 619.257 368.423C614.629 362.444 614.379 360.878 618.506 364.01C621.258 366.003 622.134 366.003 626.887 364.295C629.764 363.156 632.265 361.732 632.516 360.878C633.016 359.028 625.761 354.615 622.134 354.615C618.131 354.615 613.878 357.177 614.754 359.028C616.005 361.163 613.378 360.451 611.627 358.174C610.751 357.035 610.501 356.038 611.001 356.038C612.878 356.038 608.5 351.483 604.247 348.921C601.12 347.212 600.37 346.074 601.62 345.647C602.621 345.22 606.373 343.796 609.751 342.515C624.886 336.821 631.14 336.251 636.018 339.81C638.77 341.803 639.02 342.8 638.269 348.351C637.644 354.188 637.769 354.757 643.272 361.163C647.275 365.718 649.276 367.142 649.652 365.861C652.529 355.327 650.402 347.355 643.898 344.223C641.646 343.084 638.77 340.807 637.519 339.241L635.142 336.251L642.772 338.387C647.025 339.383 654.905 342.942 660.409 346.074C670.29 351.768 670.54 351.91 669.79 356.465C669.039 361.448 671.791 366.999 674.043 365.291C675.919 364.01 675.794 357.035 673.917 354.757C672.542 353.191 672.792 353.191 675.418 354.472L678.545 356.181L675.418 353.191C673.667 351.625 670.915 349.063 669.414 347.497C667.788 345.931 666.037 344.65 665.412 344.65C662.785 344.65 644.023 333.262 645.524 332.692C653.779 329.561 657.407 329.276 667.038 331.269C673.792 332.692 680.046 332.977 685.425 332.265C698.684 330.7 700.435 331.411 702.811 340.38C703.562 343.511 705.438 346.785 706.814 347.497C708.815 348.778 720.073 353.049 721.448 353.191C722.699 353.191 721.198 344.935 719.197 340.38C716.07 333.547 713.568 331.838 705.813 331.838C698.684 331.838 694.931 329.845 699.434 328.564C704.688 326.856 719.697 327.71 727.202 330.13C733.206 332.123 735.207 333.404 737.084 337.105C739.21 341.376 739.21 341.803 737.209 345.22C735.958 347.497 735.457 350.202 735.958 352.479C736.958 357.035 738.835 357.035 740.711 352.479C741.837 349.49 741.712 347.355 740.211 341.803C738.334 335.112 738.334 334.685 740.336 334.685C741.587 334.685 745.714 335.967 749.592 337.39C753.469 338.956 756.971 339.668 757.347 338.956C757.722 338.244 754.095 336.251 749.091 334.543C739.46 331.269 739.335 328.991 748.966 328.991C751.843 328.991 754.22 328.28 754.22 327.425C754.22 326.429 752.469 326.144 749.592 326.714C734.457 329.276 733.331 329.276 721.573 325.575C715.069 323.582 707.314 321.874 704.312 321.874C699.684 321.874 699.059 321.589 699.809 319.311C700.31 318.03 701.185 315.183 701.936 313.19C703.312 308.777 707.564 306.215 713.568 306.215C717.071 306.215 718.196 307.069 719.822 310.485C721.824 314.756 726.327 318.457 727.702 316.891C728.078 316.464 727.828 314.187 727.077 311.909C725.701 307.638 725.701 307.638 730.204 307.638C732.831 307.496 736.583 306.642 738.585 305.503C742.962 303.225 740.961 302.656 736.083 304.791C733.206 306.073 732.831 305.93 733.456 304.08C734.082 302.087 733.957 302.087 731.455 304.08C727.953 306.784 722.449 306.784 720.448 304.08C719.197 302.371 719.322 301.233 720.823 298.528C723.7 293.546 728.578 292.691 733.456 296.25C738.459 299.667 739.46 299.809 746.465 296.82C752.594 294.115 752.594 292.549 746.715 287.994C741.586 284.15 737.959 284.008 733.831 287.709C732.08 289.275 728.578 291.553 725.951 292.834L721.448 294.969L724.325 290.414C725.826 287.994 728.703 284.862 730.704 283.581C732.581 282.3 734.207 280.164 734.207 278.741C734.207 277.46 733.957 276.321 733.706 276.321C732.456 276.321 719.697 292.549 717.571 296.82C715.695 300.521 714.569 301.233 710.691 301.375C703.687 301.375 702.436 302.371 696.557 312.478C688.052 327.141 678.295 330.842 666.663 324.009C664.661 322.87 662.035 322.301 660.909 322.87C657.282 324.436 660.159 320.735 665.412 316.891C668.039 315.041 670.54 312.051 671.041 310.485C672.041 306.784 670.79 297.674 669.289 297.674C668.664 297.674 666.413 299.524 664.286 301.802C660.784 305.503 660.284 306.927 660.534 312.478C660.909 320.165 659.283 322.158 649.902 325.433C642.772 327.853 635.893 328.28 634.767 326.144C633.516 323.867 636.393 315.468 639.77 311.34C641.396 309.347 642.397 307.638 642.022 307.638C641.521 307.638 642.772 305.788 644.773 303.368C646.775 301.09 649.151 299.097 650.027 299.097C650.902 299.097 653.779 297.816 656.281 296.25C659.908 294.115 663.536 293.403 671.666 293.261C682.673 293.118 683.173 292.834 674.793 291.268L669.915 290.271L672.917 287.567C674.668 286.143 675.293 284.862 674.543 284.862C673.667 284.862 671.666 286.286 670.165 287.994C667.788 290.698 657.031 294.115 655.531 292.549C655.155 292.264 662.41 281.303 666.037 276.89C669.289 272.904 673.417 271.766 680.547 272.62C685.425 273.331 687.927 273.047 687.927 272.05C687.927 270.769 686.801 270.484 679.796 270.057C678.42 269.915 677.42 269.203 677.545 268.207C677.795 267.21 675.669 267.637 671.916 269.488C664.661 273.189 659.908 276.748 653.904 283.154L649.151 288.278L649.902 278.314C650.903 264.221 651.153 263.082 655.28 258.1C657.407 255.68 660.284 250.982 661.785 247.566C665.787 238.597 672.542 228.348 676.919 224.789C680.171 222.227 682.423 221.657 690.303 221.8L699.809 221.942L693.93 219.949C690.553 218.81 687.927 217.245 687.927 216.675C687.927 216.106 690.803 213.543 694.306 210.981C697.683 208.419 701.31 205.002 702.061 203.579C702.936 202.155 704.187 200.874 705.063 200.874C705.938 200.874 706.689 200.162 706.689 199.166C706.689 196.461 726.577 175.108 731.205 172.973C735.082 171.122 736.208 171.265 743.087 173.827C747.34 175.535 750.968 176.532 751.218 176.247C751.468 175.962 748.966 174.112 745.464 172.119C739.71 168.702 739.46 168.418 742.087 166.994C744.588 165.713 744.714 165.571 742.587 164.574C739.585 163.151 731.955 165.855 726.201 170.268C723.575 172.261 721.073 173.542 720.448 173.115C719.822 172.688 717.446 174.966 715.069 178.098L710.691 183.934L709.941 180.233C709.441 178.098 709.441 175.108 709.941 173.542C710.441 171.549 710.191 170.98 709.315 171.549C708.565 172.119 707.94 176.105 707.94 180.375C707.94 187.208 707.439 188.632 703.312 193.756C696.932 201.87 692.805 204.86 686.676 205.999C679.546 207.28 679.296 208.134 694.306 178.382C695.557 175.962 696.432 173.827 696.182 173.827C695.932 173.827 693.18 177.386 690.053 181.656C684.424 189.486 684.299 189.628 684.925 184.93C685.55 181.229 685.05 179.521 682.923 177.386C680.672 175.108 680.046 174.966 679.171 176.674C678.42 177.813 677.92 179.948 677.92 181.229C677.92 183.507 677.545 183.507 673.917 180.945C668.664 177.243 667.914 177.386 667.914 181.514C667.914 187.493 670.165 192.048 674.168 194.468C678.671 197.173 679.171 201.728 675.293 206.71C673.792 208.561 671.666 211.408 670.54 212.974C669.289 214.54 666.037 218.241 663.286 221.373L658.157 226.782L656.156 222.796C653.654 217.529 653.654 221.088 656.156 229.202C658.157 236.035 657.657 241.302 654.155 249.416C650.527 257.388 648.651 258.527 646.149 254.256C642.272 247.423 642.397 243.295 647.025 230.91C649.527 224.647 651.028 219.38 650.402 219.38C649.902 219.38 648.776 221.088 648.026 223.366C646.024 228.775 640.771 235.893 639.77 234.754C639.27 234.184 637.519 226.213 635.893 217.102C634.267 207.849 632.641 200.02 632.265 199.735C630.389 197.457 630.514 201.87 632.766 212.689C634.267 219.237 635.392 226.213 635.392 228.063C635.267 234.327 636.268 239.879 639.645 252.833C642.897 265.644 644.023 276.321 641.646 272.05C640.896 270.627 640.646 271.481 641.146 275.04C642.147 281.73 636.518 294.4 627.888 305.361C621.258 313.475 619.132 314.898 619.132 311.34C619.132 310.201 618.631 308.777 617.881 308.35C617.005 307.781 617.005 308.635 617.881 311.055C618.882 314.187 618.506 315.041 614.379 318.742C607.374 325.148 592.364 333.12 581.732 336.251C571.976 339.241 552.839 340.095 542.582 338.244C534.702 336.678 536.203 334.258 550.712 325.575C562.72 318.457 568.099 317.461 575.729 321.162C578.23 322.301 580.982 323.297 581.858 323.155C582.733 323.155 581.983 322.443 580.106 321.589C570.35 317.603 584.484 313.19 597.743 316.18C601.37 316.891 605.873 317.603 607.749 317.461C611.002 317.318 611.001 317.318 607.249 315.895L603.497 314.329L607.874 312.478C612.127 310.77 612.127 310.628 608.75 310.628C605.373 310.485 605.373 310.485 607.249 306.215C609.751 300.521 609.751 300.521 604.372 300.521C599.244 300.521 596.492 302.371 594.366 306.927C593.24 309.204 591.739 309.774 585.735 309.916C577.355 310.201 563.971 311.767 562.595 312.763C560.594 314.187 561.719 311.767 566.723 304.08C572.351 295.681 573.477 294.684 572.226 299.097C571.601 301.233 571.976 301.944 573.852 301.944C576.604 301.944 578.605 299.667 579.356 295.538C579.606 293.688 581.482 292.264 585.61 290.841C589.988 289.56 591.364 288.421 590.738 286.855C590.238 285.431 589.613 285.289 588.487 286.286C586.36 288.278 576.604 291.98 576.604 290.841C576.604 290.271 578.856 286.57 581.732 282.727C587.111 275.324 589.613 270.769 588.862 269.773C588.237 269.061 570.975 289.275 566.222 296.25L562.845 301.233V297.389C562.845 295.254 563.471 293.118 564.096 292.691C566.848 290.698 565.347 283.296 561.344 278.741L557.342 274.186L556.466 277.744C554.715 284.72 555.34 288.563 558.467 291.98C563.971 297.816 562.095 304.222 552.463 312.621C549.211 315.468 544.583 318.742 542.332 319.738L538.079 321.731L538.704 315.753C539.08 312.478 540.205 308.065 541.081 305.93C544.333 298.813 543.332 293.546 537.829 287.424C530.949 280.022 529.448 280.307 528.823 289.417C528.198 298.528 530.074 304.791 534.577 308.065C539.83 312.051 538.579 320.735 531.95 326.714C530.324 328.137 527.572 331.696 526.071 334.543C523.695 338.671 521.693 340.237 516.19 342.23C507.059 345.504 496.677 346.785 498.803 344.365C501.055 341.803 500.68 337.105 498.303 338.102C497.177 338.529 495.927 338.956 495.301 338.956C494.801 338.956 493.675 340.807 492.925 343.227C492.299 345.504 490.923 347.497 489.923 347.497C488.922 347.497 487.546 349.063 486.796 351.056C483.544 359.17 469.284 365.291 445.143 368.85C435.887 370.274 431.009 370.274 423.254 368.992C412.998 367.284 401.865 362.16 402.366 359.455C402.491 358.458 400.865 357.462 398.738 356.892C395.111 356.038 379.976 344.792 378.225 341.661C376.224 337.96 380.101 337.248 389.232 339.668C396.612 341.661 405.243 342.23 433.386 342.515C452.648 342.657 467.908 342.657 467.158 342.372C466.532 342.23 463.28 341.661 460.153 341.091C449.396 339.525 447.77 334.685 455.9 328.991C461.779 324.863 466.282 325.432 473.787 331.127C477.289 333.974 480.291 335.682 480.291 335.112C480.291 334.401 478.665 332.692 476.664 331.127C474.663 329.703 473.162 327.995 473.412 327.425C473.787 326.998 472.536 325.717 470.91 324.721C464.531 320.877 467.033 319.596 483.168 318.173C493.05 317.461 495.551 317.603 497.928 319.596C501.43 322.301 504.432 322.585 501.18 319.881C499.179 318.03 499.179 317.888 502.056 317.034C503.682 316.607 506.058 316.607 507.059 317.034C508.185 317.461 509.06 317.176 509.06 316.322C509.06 314.471 507.934 314.329 495.301 314.614L485.92 314.898L491.549 309.204C499.179 301.375 496.802 301.802 487.921 309.774C481.417 315.61 480.166 316.18 473.787 316.18C469.91 316.18 465.282 316.749 463.53 317.603C459.778 319.169 459.403 317.888 462.029 312.194C465.157 305.503 470.035 301.517 478.665 298.955C487.171 296.393 487.171 296.393 481.292 296.677C477.915 296.82 475.288 296.535 475.288 296.108C475.288 295.538 479.041 293.261 483.794 290.841C491.799 286.57 492.049 286.428 487.671 286.428C477.79 286.143 461.529 300.521 455.65 314.614C453.899 319.027 452.899 320.165 452.899 318.173C452.773 316.607 453.524 314.471 454.4 313.475C455.65 312.051 455.525 311.909 453.899 312.621C452.273 313.333 451.898 312.763 452.523 309.489C452.773 307.211 452.648 306.073 452.023 306.642C451.398 307.354 450.897 312.051 450.897 317.176C450.772 325.86 450.522 326.856 446.519 330.842L442.392 335.112L423.504 334.258C405.493 333.547 395.987 331.554 396.737 328.849C397.237 327.141 420.377 314.756 423.129 314.756C424.255 314.756 425.256 314.044 425.256 313.333C425.256 312.478 427.382 313.475 429.884 315.468C432.51 317.461 435.637 319.027 437.013 319.027C439.14 319.027 447.395 316.322 448.896 315.183C449.897 314.471 444.643 308.777 441.266 306.784C436.513 303.937 435.387 304.222 425.005 309.631C414.624 315.325 411.372 314.471 417.125 307.638C419.127 305.361 421.253 303.368 421.878 303.368C422.504 303.368 425.13 301.517 427.632 299.24C430.134 296.962 435.637 293.83 439.765 292.264C444.018 290.698 448.396 288.706 449.772 287.851C451.022 286.997 454.274 285.431 456.776 284.293C460.403 282.584 461.654 281.161 462.905 276.606C463.656 273.474 464.031 269.203 463.53 267.21C462.78 263.509 462.655 263.509 459.278 265.929C451.898 271.054 450.272 273.758 450.272 280.022C450.272 287.14 448.396 288.848 440.39 289.702L435.387 290.129L439.265 282.157C441.391 277.744 444.518 272.477 446.144 270.484C447.77 268.491 448.646 266.499 448.271 265.929C447.77 265.502 448.396 263.367 449.521 261.231C450.772 259.239 451.398 257.246 451.147 256.819C450.772 256.534 447.395 262.228 443.517 269.488C435.387 285.004 428.508 293.403 419.252 299.382C415.624 301.802 411.246 306.073 409.62 308.92L406.493 314.044V307.923C406.493 303.51 407.119 301.517 408.995 300.236C410.371 299.24 411.497 297.958 411.497 297.247C411.497 296.677 410.121 297.247 408.37 298.528C403.992 301.802 402.741 300.094 402.616 290.841C402.491 283.296 402.366 283.011 401.365 287.709C400.74 290.556 400.865 295.823 401.49 300.236C403.992 316.037 400.74 320.165 382.853 323.867C363.841 327.853 359.463 326.998 349.957 316.749C344.203 310.628 343.953 310.485 335.322 310.485C325.065 310.485 290.918 317.888 283.163 321.874C280.161 323.297 275.783 326.144 273.532 328.137C269.279 331.838 263.525 332.835 260.148 330.415C258.647 329.276 258.772 328.564 261.149 324.863C262.65 322.443 263.901 319.027 263.901 317.176C263.901 310.77 274.783 298.813 285.54 293.261C288.542 291.695 289.542 291.837 292.669 293.83C297.047 296.82 301.3 296.962 305.928 294.115C307.929 292.976 311.181 291.98 313.183 291.98C317.31 291.98 325.19 289.133 325.19 287.567C325.19 287.14 323.064 287.282 320.437 288.136C315.434 289.702 311.431 288.848 311.431 286.428C311.431 284.72 319.061 279.31 323.689 277.744C325.816 277.033 326.191 276.463 324.815 276.463C323.064 276.321 322.689 275.609 323.314 273.047C325.19 265.929 328.317 262.797 334.572 262.086C337.949 261.659 340.826 260.662 341.076 259.95C341.451 258.669 339.2 258.527 329.318 259.096C327.192 259.239 325.566 261.374 322.689 267.78C320.437 272.904 317.56 277.033 315.434 278.314C313.558 279.453 309.93 282.584 307.429 285.431C302.926 290.414 298.798 291.837 295.296 289.275C294.045 288.278 294.545 287.709 297.297 287.14C299.299 286.57 303.176 283.581 305.803 280.591L310.681 274.897L306.053 272.762C297.172 268.491 290.418 270.342 286.915 278.029C285.79 280.449 283.163 284.577 280.912 287.14C278.785 289.702 276.158 292.976 275.033 294.4C268.904 302.229 258.647 311.909 256.396 311.909C250.517 311.909 252.518 302.798 258.897 301.233C260.899 300.805 263.65 298.955 265.026 297.247C273.157 286.997 282.788 273.189 282.287 272.62C281.787 271.908 273.907 280.449 266.652 289.56C264.401 292.407 260.773 295.681 258.522 296.82C252.768 299.524 249.641 304.08 245.388 315.753C241.261 327.141 231.129 345.362 227.627 347.497C222.374 350.629 222.374 340.522 227.627 334.401C232.255 329.276 232.38 327.852 228.127 331.127C226.376 332.408 224.625 333.12 224.25 332.692C223.874 332.265 224.625 328.422 226.001 324.009C227.502 319.738 228.127 316.18 227.627 316.18C226.626 316.18 220.122 331.981 220.122 334.543C220.122 335.397 218.746 338.671 217.12 341.661C215.494 344.65 213.368 349.775 212.492 353.049C210.991 358.885 204.112 367.427 201.11 367.427C200.234 367.427 192.854 371.27 184.724 376.11C176.594 380.808 169.714 384.509 169.464 384.224C168.964 383.797 170.715 380.95 185.85 358.458C199.609 337.817 202.235 333.404 208.114 321.447C222.874 291.553 250.642 261.659 286.29 237.316C308.805 221.8 313.558 220.519 335.197 223.65C340.325 224.504 346.955 225.216 349.957 225.359C352.958 225.501 356.586 226.64 358.212 228.063C360.714 230.341 361.089 231.622 360.463 237.886C359.838 245.146 359.838 245.146 366.467 252.121C370.095 255.964 373.597 258.811 374.222 258.384C374.723 257.957 375.223 253.544 375.223 248.42C375.223 240.448 374.723 238.74 372.096 235.75C370.47 233.757 367.968 232.192 366.717 232.192C365.342 232.192 362.965 230.91 361.339 229.344L358.337 226.64L363.465 226.497C366.217 226.497 372.972 227.779 378.475 229.487C396.487 234.896 399.114 235.466 400.615 233.757C401.615 232.619 400.99 232.192 398.113 232.192C396.112 232.192 389.232 229.344 382.978 225.786C376.724 222.227 369.97 219.38 367.843 219.38C362.215 219.38 362.214 217.245 367.718 213.116C375.473 207.28 373.597 207.137 364.591 212.832C355.46 218.526 351.332 219.095 341.701 215.821C330.444 211.977 332.445 210.554 353.959 207.28C361.839 205.999 375.098 203.152 383.353 201.016C407.994 194.468 405.493 194.326 410.246 202.44C415.249 211.266 421.753 216.248 427.007 215.252C430.759 214.54 430.634 214.54 425.381 213.401C419.377 212.262 416 209.415 413.248 203.436C410.246 196.888 411.246 196.176 417.25 200.02C421.753 202.867 424.755 203.721 430.759 203.721C436.013 203.721 439.39 204.433 441.516 206.141C444.643 208.703 445.519 208.846 459.278 209.13C469.159 209.415 469.785 210.127 471.286 223.65C471.911 228.348 473.037 233.046 473.787 233.9C474.663 234.896 474.788 233.9 473.912 229.914C472.286 221.657 472.536 215.109 474.538 214.255C475.538 213.828 479.416 215.109 483.293 217.102C491.674 221.515 506.183 226.07 507.309 224.647C508.685 223.081 507.434 222.369 498.303 219.38C493.55 217.956 485.17 214.113 479.666 211.123C470.785 206.141 468.409 205.429 458.402 204.86C450.522 204.433 446.144 203.579 443.768 201.728C437.138 196.746 438.514 190.909 446.394 190.909C448.896 190.909 452.273 189.913 453.899 188.632C456.526 186.496 457.151 186.496 463.656 190.198C467.408 192.19 470.785 193.614 471.16 193.187C471.536 192.76 470.785 191.906 469.534 191.336C468.284 190.909 465.907 189.486 464.281 188.347L461.404 186.212L464.156 182.938C465.657 181.087 468.909 179.094 471.411 178.667C478.415 177.243 480.667 174.966 474.037 175.962C471.035 176.389 466.783 177.955 464.656 179.521C462.405 181.087 456.651 182.653 449.897 183.507C440.14 184.788 438.389 185.5 433.136 190.055C426.506 196.034 426.631 195.892 420.502 192.902L415.874 190.625L422.754 188.489C437.639 184.219 457.777 175.962 471.661 168.702C479.541 164.432 487.046 161.015 488.172 161.015C489.422 161.015 492.424 162.012 495.051 163.293C497.553 164.432 504.182 165.713 509.686 165.998C521.443 166.567 525.821 167.563 529.448 170.126C530.949 171.265 536.578 172.403 541.831 172.688C547.085 172.973 550.712 172.688 549.962 172.119C549.086 171.549 544.833 170.98 540.331 170.98C534.327 170.838 531.45 170.268 529.323 168.275C525.696 164.716 526.697 162.012 533.451 158.026L538.829 154.752L542.832 158.595C544.958 160.731 547.585 162.439 548.586 162.439C552.588 162.439 561.594 158.88 561.594 157.172C561.594 154.609 552.714 148.203 549.086 148.203C547.335 148.203 544.458 149.342 542.832 150.623C541.081 152.047 536.578 154.325 532.826 155.748C529.073 157.172 524.695 159.734 523.194 161.442C520.693 164.005 519.942 164.147 517.315 162.439C515.439 161.3 512.562 161.015 509.936 161.585C504.307 162.723 501.555 161.442 501.555 157.456C501.555 150.908 508.56 146.068 519.692 144.929C523.82 144.645 530.449 142.509 534.577 140.516C538.579 138.523 542.332 136.815 542.832 136.815C543.332 136.815 545.084 139.093 546.71 141.798C548.336 144.502 550.212 146.78 550.712 146.78C551.213 146.78 550.462 144.929 548.961 142.509C547.335 140.232 546.459 137.954 546.835 137.527C547.46 136.673 562.47 138.951 567.098 140.516C568.474 141.086 569.099 140.801 568.599 139.947C568.224 139.235 565.472 138.239 562.595 137.669L557.216 136.673L563.471 130.979L558.467 133.256C553.714 135.392 544.083 135.107 544.083 132.829C544.208 131.406 549.211 127.42 552.338 126.281C554.59 125.569 555.215 125.996 555.841 128.986C556.591 132.545 556.716 132.545 560.344 130.409C562.595 129.128 564.346 126.566 564.846 124.288C565.347 122.153 566.347 120.018 567.098 119.448C567.973 118.736 567.598 118.309 566.347 118.309C564.846 118.309 564.096 117.171 564.096 114.893C564.096 111.477 567.098 109.057 569.224 110.622C570.6 111.619 576.604 107.491 576.604 105.498C576.604 102.935 571.476 102.366 568.474 104.644C565.472 106.921 565.347 106.779 565.347 104.217C565.347 102.651 564.721 100.942 563.971 100.373C561.844 98.949 560.218 102.793 560.969 107.775C561.594 111.904 560.969 112.758 551.338 121.441C545.584 126.566 539.705 131.406 538.204 132.402C535.702 133.826 535.327 133.684 534.577 130.409C534.201 128.416 534.076 123.292 534.327 119.021C534.702 114.751 534.452 111.192 534.076 111.192C532.701 111.192 531.575 119.021 531.575 128.416C531.575 138.381 531.074 138.808 517.441 140.944C508.059 142.509 501.305 145.214 499.679 148.203C498.678 150.054 486.545 150.054 486.545 148.346C486.545 147.634 486.17 146.068 485.795 144.787C485.17 143.079 485.795 142.509 488.297 142.509C491.924 142.509 492.424 140.374 489.673 136.673C488.046 134.822 486.17 134.395 479.666 135.107C471.536 135.819 470.035 134.965 473.162 131.121C473.912 129.982 472.536 131.121 469.91 133.684C465.907 137.527 461.529 139.662 461.529 137.669C461.529 137.385 464.156 134.111 467.533 130.409L473.412 123.861L480.917 124.573C487.796 125.285 488.171 125.142 484.669 123.576C480.416 121.441 481.292 120.445 489.047 119.164C492.174 118.594 495.551 117.598 496.552 116.744C497.928 115.747 496.552 115.605 492.174 116.316L485.92 117.313L488.297 114.181C492.424 109.057 489.798 109.484 485.295 114.751C481.292 119.448 475.163 122.011 477.415 117.882C479.041 115.178 481.542 106.494 481.542 103.647C481.542 100.658 479.166 100.515 475.538 103.505C471.911 106.352 471.411 115.889 475.038 114.466C476.164 114.039 472.161 119.164 466.157 125.996C460.028 132.829 454.4 138.096 453.649 137.812C452.773 137.527 452.148 134.965 452.148 132.118C452.148 122.722 449.146 127.847 449.021 137.527C448.896 141.798 446.394 146.495 437.514 158.311C435.012 161.727 432.385 167.136 431.635 170.268C430.384 175.962 430.009 176.247 421.378 179.379C411.872 182.795 408.995 182.368 413.998 177.955C419.877 172.83 420.252 172.261 420.252 168.845C420.252 166.994 419.627 163.72 418.876 161.442L417.626 157.456L413.748 162.296C410.371 166.567 410.121 167.706 410.871 173.115C411.497 178.382 411.246 179.663 408.87 182.226C407.244 183.934 405.368 185.215 404.492 185.215C403.616 185.215 393.61 187.778 382.102 190.909C356.211 198.027 349.706 199.166 350.457 196.461C351.207 194.041 354.71 191.906 363.966 188.062C373.347 184.219 380.351 179.094 377.349 178.382C376.099 178.098 373.722 178.952 371.971 180.233C370.22 181.514 365.842 183.507 362.34 184.788C354.585 187.35 348.456 191.194 338.074 200.162C328.317 208.419 318.561 211.266 313.308 207.422C310.556 205.429 310.056 204.148 310.806 201.159C311.682 196.603 316.059 188.916 321.563 181.799L325.441 176.674L333.946 177.528C344.203 178.667 347.33 177.955 352.208 173.115C356.586 168.845 366.092 165.286 373.472 165.286C376.474 165.286 379.226 164.716 379.601 163.862C380.476 162.296 387.606 163.578 389.983 165.713C390.733 166.425 391.484 168.133 391.484 169.556C391.484 172.688 394.861 176.105 399.364 177.243C403.116 178.24 403.616 176.674 401.615 170.695C400.614 167.421 400.74 167.279 404.117 167.848C408.37 168.56 408.745 166.994 405.368 162.296C403.241 159.165 402.741 159.165 397.988 160.873C394.611 162.154 391.859 162.296 389.607 161.442L386.23 160.161L391.984 157.029C395.611 154.894 398.738 154.04 400.489 154.609C402.741 155.321 402.991 155.179 401.49 154.04C398.613 151.762 396.487 152.189 387.856 156.745C381.727 160.019 378.35 161.015 374.097 160.731C368.844 160.303 368.344 160.019 368.719 156.745C368.844 154.752 370.095 151.478 371.471 149.342C374.222 145.214 374.472 143.933 372.971 143.933C372.471 143.933 369.844 148.061 367.093 153.186C362.84 161.015 361.589 162.296 358.462 162.439C356.461 162.439 351.833 164.432 348.08 166.852C341.576 171.122 341.201 171.122 338.824 168.845C335.322 165.143 335.822 161.869 341.201 156.033C347.08 149.485 354.585 144.502 360.213 143.363C362.59 142.794 367.093 140.516 370.22 138.096C375.098 134.395 376.599 133.826 381.227 134.68C385.48 135.392 386.48 135.107 386.48 133.399C386.48 132.118 387.356 131.121 388.357 131.121C390.733 131.121 400.74 125.427 399.989 124.573C399.614 124.288 396.487 125.285 392.985 126.993C387.106 129.84 386.48 129.84 383.729 127.705C379.851 124.573 376.474 124.715 376.474 128.274C376.474 130.125 375.598 131.121 373.972 131.121C372.346 131.121 371.721 130.409 372.221 128.986C372.846 127.42 372.096 126.851 369.97 126.851C366.467 126.851 362.715 130.836 362.715 134.395C362.715 137.669 359.338 137.385 357.712 133.968C356.086 130.552 359.963 121.014 363.715 118.879C366.843 117.313 377.725 105.782 377.725 104.217C377.725 100.231 385.98 83.86 390.733 78.166C395.861 72.045 396.737 71.618 401.115 72.33C404.742 72.899 406.368 72.472 407.744 70.621C409.245 68.6284 409.245 68.059 407.619 66.9201C404.492 64.5001 398.488 67.0625 393.11 73.041C390.108 76.315 387.731 78.593 387.731 78.166C387.731 77.739 389.107 73.895 390.858 69.6248C392.609 65.4966 393.985 60.799 393.985 59.2331C393.86 56.386 388.106 69.4825 381.852 86.28C380.101 90.978 378.225 95.391 377.725 96.102C376.099 97.953 372.972 93.825 369.97 85.995C368.469 82.152 367.093 79.874 366.843 80.871C366.592 81.725 368.093 86.707 370.22 91.832C372.721 97.668 373.847 102.224 373.347 103.932C372.971 105.498 368.969 109.768 364.466 113.327C360.088 116.886 355.585 121.868 354.459 124.431C351.457 130.836 341.451 143.933 339.45 143.933C338.574 143.933 336.823 142.367 335.697 140.374C333.821 136.958 333.821 136.531 335.697 134.111C336.823 132.829 337.448 131.264 337.073 130.836C336.698 130.409 337.448 129.271 338.574 128.132C340.575 126.281 340.7 126.424 339.074 128.559C338.199 129.982 337.949 131.121 338.574 131.121C339.825 131.121 342.702 128.132 342.702 126.851C342.702 125.427 338.449 125.712 336.698 127.278C333.946 129.698 333.821 127.562 335.947 117.028C337.073 111.334 337.699 106.352 337.323 105.925C336.573 105.213 333.946 114.751 333.946 118.309C333.946 119.733 333.071 119.306 331.444 116.886C328.568 112.615 328.317 113.469 330.569 119.733C331.945 123.149 332.07 126.139 331.194 131.548C329.318 143.079 328.568 143.363 324.19 133.541C320.562 125.285 320.312 123.719 320.813 114.608C321.563 104.074 320.688 103.789 319.187 114.181L318.186 120.445L312.057 109.199C308.68 102.935 305.678 98.665 305.428 99.519C305.177 100.515 306.303 103.647 307.929 106.494C316.56 122.438 323.439 137.954 322.314 139.093C321.438 140.089 313.058 138.239 308.43 136.104C306.678 135.249 306.303 135.392 306.929 136.531C307.429 137.527 311.056 139.235 314.934 140.516C324.065 143.363 325.19 145.214 324.315 154.467C323.689 160.588 322.814 162.723 318.311 168.133C315.309 171.692 312.057 176.959 310.806 179.806C306.678 190.055 303.301 186.923 304.177 173.685C304.552 167.99 304.802 167.421 307.679 167.848C311.807 168.418 316.435 166.994 316.435 165.286C316.435 162.866 310.306 162.012 307.929 164.005C306.803 165.001 307.804 163.293 310.181 160.303C312.557 157.172 313.433 155.748 311.932 157.172C308.43 160.446 306.678 160.161 306.178 156.318C305.803 153.898 305.302 154.467 304.177 159.165C303.301 162.439 302.175 165.428 301.55 165.855C299.424 167.421 296.046 162.723 294.545 155.891L292.794 148.915V155.321C292.669 159.734 293.67 163.435 295.796 167.421C298.798 173.115 299.924 179.521 297.798 179.521C295.796 179.521 287.166 174.966 283.663 172.119C281.662 170.553 280.161 169.841 280.161 170.553C280.286 172.688 283.288 176.105 290.418 182.083C298.548 188.916 300.049 192.76 297.047 199.45C293.92 206.283 279.035 222.654 271.405 227.636C267.653 230.056 256.396 238.455 246.639 246.284C227.377 261.516 221.748 264.221 217.62 259.95C213.868 256.107 213.493 249.986 216.37 231.764C219.497 210.412 219.497 205.714 216.119 183.08C214.618 172.546 213.743 162.866 214.243 160.731C215.494 155.463 221.748 147.492 226.376 145.356C231.129 143.079 232.38 144.218 237.633 154.752C239.635 159.022 241.886 162.439 242.637 162.439C243.262 162.439 241.761 159.022 239.385 155.036C237.008 150.908 235.132 147.065 235.132 146.495C235.132 145.783 236.883 145.356 239.009 145.356C241.886 145.356 244.888 147.207 250.016 152.047C253.894 155.748 255.645 157.029 254.019 154.894L251.017 151.051L259.022 150.766L267.028 150.623L258.022 149.769C253.018 149.342 248.39 148.203 247.515 147.207C245.388 144.787 247.14 141.086 250.267 141.086C252.518 141.086 252.643 140.801 251.392 138.951C250.142 137.242 250.142 136.388 251.517 134.253C252.393 132.972 251.142 133.968 248.641 136.673C244.888 140.516 243.012 141.513 238.884 141.513C234.006 141.513 229.253 138.524 232.005 137.385C237.633 134.822 243.637 129.413 245.764 125.142C255.895 104.359 260.648 97.953 268.779 94.109C272.531 92.401 273.532 92.544 279.286 95.533C289.542 100.658 294.796 100.942 285.665 95.818C281.412 93.398 277.534 90.835 277.034 89.981C275.908 87.846 280.786 83.291 286.415 81.155C291.043 79.305 310.431 69.9095 311.306 69.0554C311.557 68.7707 311.557 68.059 311.181 67.6319C310.681 67.2048 306.553 68.486 301.8 70.337C297.047 72.33 291.293 73.753 288.917 73.468C285.54 73.184 283.038 74.465 276.033 80.444C271.28 84.43 265.902 88.842 264.151 90.124C262.274 91.547 257.521 95.96 253.519 100.088C249.391 104.217 245.388 108.202 244.388 108.772C241.761 110.48 242.261 106.921 245.138 101.939C246.764 99.092 247.39 96.387 246.889 93.825C246.264 90.408 246.764 89.697 252.518 86.422C255.895 84.43 259.022 82.152 259.523 81.298C260.648 79.162 259.398 79.59 254.895 82.721C252.643 84.287 250.392 85.568 249.891 85.568C248.015 85.568 249.016 74.75 251.392 68.6284C252.768 65.2119 253.894 61.0837 253.769 59.3755C253.644 56.6708 253.519 56.8131 252.768 59.9449C252.143 61.9378 250.517 66.2084 249.141 69.4825C247.64 72.757 246.389 77.454 246.389 80.017C246.389 82.437 244.263 88.985 241.761 94.679C237.633 103.505 237.008 106.067 237.008 114.608C237.008 124.146 236.883 124.431 232.38 128.701C226.501 134.111 224.625 132.687 230.003 126.993C234.757 122.011 234.757 121.299 230.504 122.295C227.252 123.007 227.252 122.865 228.002 116.744C228.377 113.185 229.128 109.057 229.628 107.633C230.504 104.786 230.379 104.786 228.002 107.633C226.501 109.341 224.75 114.893 223.499 121.726C221.248 133.541 216.495 143.933 213.243 143.933C210.241 143.933 208.489 137.812 209.365 130.552C209.99 125.996 211.491 122.438 214.493 118.736C219.872 111.904 224.75 96.529 225.751 82.437C226.376 74.18 227.377 70.052 229.628 66.3507C232.755 61.0837 236.633 51.4037 235.757 51.4037C235.382 51.4037 234.006 53.9661 232.63 57.0978C229.878 63.219 226.876 64.7849 228.002 59.5178C228.377 57.8096 229.003 50.5496 229.253 43.5743C229.878 31.1896 229.878 31.0473 228.628 38.8767C227.252 46.7061 225 49.5531 223.374 45.2825C222.999 44.4284 222.999 45.7096 223.374 48.4143L224.125 53.2543L219.622 52.4002C216.87 51.9731 215.369 52.1155 215.744 52.9696C216.244 53.6813 217.62 54.2508 218.871 54.2508C224.375 54.2508 225.125 55.6743 225.125 65.0696C225.125 77.454 222.999 88.415 220.497 88.415C219.372 88.415 215.119 84.572 210.991 79.874C206.863 75.177 203.236 71.333 202.986 71.333C201.485 71.333 203.486 75.177 208.615 82.294C217.745 94.821 218.121 95.818 215.869 104.501C214.744 108.629 211.616 115.605 208.615 120.018L203.361 128.132L197.232 118.167C191.603 109.057 191.103 107.633 191.979 102.935C194.355 88.558 194.355 88.985 192.354 90.978C191.228 91.974 189.727 94.679 188.852 97.099C187.976 99.377 186.6 101.085 185.85 100.8C183.723 100.088 176.344 82.579 176.344 78.308C176.344 76.315 177.719 72.899 179.471 70.764C182.723 66.7778 183.223 64.9272 184.349 54.2508C184.724 50.6919 186.1 45.2825 187.601 42.1508C188.977 39.1614 190.102 35.3179 189.977 33.6096C189.977 31.9014 189.352 32.7555 188.602 35.7449C186.225 45.2825 182.598 46.9908 180.096 40.0155C179.22 37.5955 178.22 35.8873 177.97 36.3143C177.719 36.599 178.72 39.8731 180.221 43.432C182.723 49.5531 182.723 50.2649 180.846 52.6849C179.721 53.9661 178.845 57.2402 178.845 59.6602C178.845 63.219 178.345 64.2154 176.469 64.2154C171.215 64.2154 167.838 51.4037 171.716 46.8484C172.716 45.852 173.717 42.1508 174.217 38.7343C174.717 34.3214 176.093 31.1896 178.97 27.7732C181.222 25.0685 182.473 22.9332 181.722 22.9332C180.972 22.9332 178.595 25.2108 176.594 27.9155L172.716 32.7555L171.966 28.6273C171.465 26.2073 170.59 23.9296 169.839 23.3602C168.839 22.7908 168.714 23.3602 169.339 25.2108C171.09 30.4779 171.716 41.012 170.215 42.0084C169.464 42.5778 168.839 42.1508 168.839 41.1543C168.839 40.1578 167.087 35.1755 164.836 30.0508C162.71 24.9261 160.208 16.9544 159.332 12.2567C157.957 5.42383 157.706 4.99673 158.082 9.69443C158.332 13.1108 158.457 15.8155 158.207 15.8155C157.957 15.8155 156.331 12.9685 154.579 9.40973C151.452 3.57323 150.076 1.72263 150.076 3.85793ZM481.542 138.239C482.918 139.235 482.418 139.662 479.416 139.662C474.162 139.662 473.787 143.648 478.54 148.631L481.792 152.047L478.415 155.179C476.539 156.745 474.663 158.168 474.162 158.168C473.787 158.168 473.662 155.036 473.787 151.051C474.037 147.207 473.912 143.933 473.537 143.933C473.037 143.933 470.535 145.214 467.783 146.78C462.405 149.912 461.029 152.047 459.653 159.592C458.527 165.855 457.401 166.709 449.897 166.709C440.015 166.709 440.39 162.154 451.398 148.915C456.401 142.794 457.151 142.367 461.404 143.221C464.531 143.791 465.407 143.648 464.031 142.652C461.279 140.516 463.53 139.093 471.286 138.096C475.163 137.669 478.665 137.1 479.041 137.1C479.416 136.958 480.541 137.527 481.542 138.239ZM165.461 165.571C170.089 173.969 171.465 184.646 168.213 186.069C164.086 187.92 158.332 182.795 154.83 174.254L151.577 166.282L154.83 162.296C156.706 160.019 159.082 158.453 160.083 158.595C161.084 158.738 163.46 161.869 165.461 165.571ZM396.862 164.859C395.986 165.143 394.235 165.143 393.11 164.859C391.859 164.432 392.609 164.147 394.611 164.147C396.737 164.147 397.613 164.432 396.862 164.859ZM682.298 193.614C680.797 200.589 679.171 200.305 679.171 193.187C679.171 187.066 679.421 186.496 681.172 188.205C682.423 189.343 682.798 191.194 682.298 193.614ZM289.292 286.286C290.168 286.286 288.291 287.851 285.164 289.702C282.037 291.553 279.286 292.834 279.035 292.549C277.91 291.268 284.539 284.862 286.165 285.574C287.041 286.001 288.542 286.286 289.292 286.286ZM567.723 352.052C573.102 351.91 573.227 351.91 570.475 354.188C568.599 355.611 567.848 357.319 568.224 359.028C568.724 361.305 568.224 361.732 564.721 361.732C560.469 361.732 554.965 357.747 552.714 352.907C551.338 350.059 551.463 349.917 556.716 351.056C559.718 351.768 564.721 352.195 567.723 352.052Z" fill="url(#paint1_linear_85_1764)"/>
<path d="M286.54 67.3474C285.665 70.0521 285.915 70.7641 287.916 71.0481C290.293 71.6181 295.171 67.7744 295.171 65.3544C295.171 64.785 293.42 64.2156 291.418 64.2156C288.542 64.2156 287.291 65.0697 286.54 67.3474Z" fill="url(#paint2_linear_85_1764)"/>
<path d="M327.067 95.2479C324.315 100.088 323.815 102.081 324.44 106.352C325.065 109.626 324.815 112.188 323.689 113.754C322.814 115.035 324.69 113.612 328.067 110.48C333.071 105.64 333.946 104.216 333.946 99.8039C333.946 96.9559 333.196 93.3979 332.195 91.9739C330.569 89.5539 330.319 89.6969 327.067 95.2479Z" fill="url(#paint3_linear_85_1764)"/>
<path d="M521.568 95.8181C521.568 96.8141 521.193 99.9461 520.818 102.651C520.192 106.779 520.693 108.345 523.444 111.476C526.071 114.466 526.697 116.316 526.071 119.021C524.695 125.142 526.196 122.865 528.323 115.605C531.074 106.067 530.824 102.224 527.572 98.8071C523.319 94.5361 521.568 93.6821 521.568 95.8181Z" fill="url(#paint4_linear_85_1764)"/>
<path d="M390.233 98.0949C389.107 98.6649 386.981 100.231 385.355 101.512L382.353 103.932L385.98 107.491C388.106 109.626 391.108 111.049 393.485 111.192C397.988 111.192 405.243 108.629 405.243 106.921C405.243 105.498 397.988 98.3799 396.487 98.3799C395.861 98.3799 394.736 98.0949 393.735 97.8109C392.86 97.3839 391.233 97.5259 390.233 98.0949Z" fill="url(#paint5_linear_85_1764)"/>
<path d="M494.05 106.209C490.923 110.48 496.427 112.9 501.805 109.626C504.432 108.06 504.432 107.918 502.181 106.067C499.179 103.505 496.052 103.505 494.05 106.209Z" fill="url(#paint6_linear_85_1764)"/>
<path d="M346.704 114.181C343.577 117.455 342.952 125.427 345.704 125.427C348.706 125.427 351.458 121.299 351.458 116.886C351.458 111.477 349.957 110.622 346.704 114.181Z" fill="url(#paint7_linear_85_1764)"/>
<path d="M578.48 122.58C576.354 125.285 576.354 125.427 579.231 126.708C581.357 127.562 583.359 127.278 585.86 125.854L589.613 123.719L586.486 121.726C582.358 119.164 581.107 119.306 578.48 122.58Z" fill="url(#paint8_linear_85_1764)"/>
<path d="M492.424 123.719C489.923 126.851 489.673 131.548 491.799 135.249C493.175 137.812 493.3 137.812 495.676 134.538C497.428 131.833 497.803 129.84 497.303 126.139C496.302 120.445 495.301 120.018 492.424 123.719Z" fill="url(#paint9_linear_85_1764)"/>
<path d="M510.186 127.705C507.184 131.975 513.813 134.253 518.316 130.409C519.567 129.413 520.192 127.847 519.692 126.993C518.441 124.573 512.062 125.142 510.186 127.705Z" fill="url(#paint10_linear_85_1764)"/>
<path d="M255.27 135.961C254.144 137.527 254.269 138.096 255.895 138.808C259.022 140.232 263.65 139.805 264.651 138.096C266.652 134.395 257.772 132.402 255.27 135.961Z" fill="url(#paint11_linear_85_1764)"/>
<path d="M275.658 136.958C271.03 138.381 269.404 140.374 268.278 145.783C267.403 149.342 267.653 149.627 271.53 149.627C273.907 149.627 276.409 149.058 277.284 148.488C278.66 147.492 282.663 138.239 282.663 136.103C282.663 135.107 280.286 135.392 275.658 136.958Z" fill="url(#paint12_linear_85_1764)"/>
<path d="M720.323 147.349C718.697 150.908 716.07 154.325 714.569 155.179C712.943 156.033 711.692 157.599 711.692 158.88C711.692 161.3 709.691 161.727 708.565 159.592C708.19 158.737 706.939 158.168 705.938 158.168C703.562 158.168 703.687 163.15 706.314 165.997C708.19 168.275 708.44 168.133 709.941 165.001C710.816 163.293 711.567 162.581 711.692 163.72C711.692 165.143 712.443 165.143 714.944 163.15C717.946 160.873 718.196 160.873 719.947 163.435C720.948 164.859 721.448 167.279 721.073 168.845C720.698 170.98 721.323 170.553 723.7 167.421C730.955 157.599 730.955 157.314 728.703 150.481C725.326 140.516 723.825 139.947 720.323 147.349Z" fill="url(#paint13_linear_85_1764)"/>
<path d="M394.486 143.933C389.232 146.353 389.607 153.755 394.861 151.905C396.862 151.193 400.239 145.783 400.239 143.221C400.239 142.225 397.488 142.509 394.486 143.933Z" fill="url(#paint14_linear_85_1764)"/>
<path d="M407.244 149.058C404.867 151.62 404.742 153.328 406.618 154.609C408.995 156.318 413.498 154.04 414.999 150.339C416.375 146.922 416.25 146.78 412.747 146.78C410.871 146.78 408.245 147.776 407.244 149.058Z" fill="url(#paint15_linear_85_1764)"/>
<path d="M744.088 158.026L741.086 160.73L744.463 162.439C747.841 164.289 752.093 163.72 755.471 161.015C757.097 159.734 756.972 159.307 754.97 157.456C751.593 154.609 747.59 154.752 744.088 158.026Z" fill="url(#paint16_linear_85_1764)"/>
<path d="M186.6 169.556C183.598 172.83 182.723 180.945 185.475 180.945C188.977 180.945 192.604 175.108 192.604 169.699C192.604 165.855 190.103 165.855 186.6 169.556Z" fill="url(#paint17_linear_85_1764)"/>
<path d="M757.097 168.133C753.219 169.983 752.969 176.816 756.846 175.678C758.222 175.25 759.973 173.258 760.599 171.407C762.35 165.998 762.1 165.855 757.097 168.133Z" fill="url(#paint18_linear_85_1764)"/>
<path d="M770.73 171.976C769.48 172.546 769.605 173.258 771.231 175.393C773.607 178.525 780.487 179.094 780.487 176.247C780.487 171.976 775.484 169.841 770.73 171.976Z" fill="url(#paint19_linear_85_1764)"/>
<path d="M760.099 175.393C757.847 176.816 757.847 177.101 759.974 179.663C762.225 182.51 765.102 183.08 767.854 181.087C769.23 180.09 768.979 179.236 766.853 176.816C763.851 173.4 763.226 173.258 760.099 175.393Z" fill="url(#paint20_linear_85_1764)"/>
<path d="M752.969 181.229C748.591 183.08 748.466 183.507 751.718 186.639C755.095 189.913 757.347 190.198 761.474 187.493C763.851 186.069 764.101 185.358 762.725 184.219C758.973 180.802 756.096 179.948 752.969 181.229Z" fill="url(#paint21_linear_85_1764)"/>
<path d="M710.816 198.454C708.065 200.162 708.065 200.447 710.066 203.721C713.443 209.557 715.57 210.839 722.574 210.839C730.579 210.839 731.08 208.988 724.951 201.728C720.448 196.176 715.945 195.18 710.816 198.454Z" fill="url(#paint22_linear_85_1764)"/>
<path d="M99.043 202.297C99.043 204.29 99.293 205.002 99.669 204.006C99.919 203.152 99.919 201.443 99.669 200.447C99.293 199.593 99.043 200.304 99.043 202.297Z" fill="url(#paint23_linear_85_1764)"/>
<path d="M500.305 203.294C493.3 204.433 491.549 205.429 489.673 209.415C487.171 214.824 487.171 214.682 491.799 215.394C496.802 216.248 500.805 213.543 502.806 207.849C504.682 203.009 504.557 202.725 500.305 203.294Z" fill="url(#paint24_linear_85_1764)"/>
<path d="M446.394 215.252C446.269 217.956 446.269 221.088 446.519 222.227C446.77 225.074 456.151 235.893 457.276 234.612C457.777 234.042 458.402 230.626 458.777 226.782C459.153 220.946 458.777 219.237 456.401 216.106C454.775 214.113 451.898 211.977 450.022 211.408C446.77 210.554 446.519 210.839 446.394 215.252Z" fill="url(#paint25_linear_85_1764)"/>
<path d="M502.306 213.97C500.054 217.529 500.68 219.38 504.057 219.38C506.183 219.38 510.311 214.54 510.311 211.977C510.311 209.557 504.057 210.981 502.306 213.97Z" fill="url(#paint26_linear_85_1764)"/>
<path d="M431.51 218.81C431.51 220.803 431.134 220.946 430.009 219.664C429.133 218.668 427.507 217.956 426.256 217.956C422.754 217.956 423.254 226.64 427.007 230.626C430.634 234.611 432.76 233.473 432.76 227.921C432.76 223.935 432.886 223.793 435.887 225.359C440.015 227.494 441.266 225.786 438.889 221.088C436.763 216.533 431.51 214.967 431.51 218.81Z" fill="url(#paint27_linear_85_1764)"/>
<path d="M624.635 221.515C625.011 222.654 625.761 224.505 626.136 225.643C626.637 226.924 625.386 227.921 622.134 228.49L617.631 229.487L621.133 233.757C627.137 240.875 636.643 237.886 631.015 230.768C628.888 228.063 628.888 227.921 631.39 227.921C634.767 227.921 634.892 225.928 631.64 222.227C628.638 218.81 623.51 218.241 624.635 221.515Z" fill="url(#paint28_linear_85_1764)"/>
<path d="M505.308 231.195C505.308 235.893 507.684 239.309 510.936 239.309C512.938 239.309 510.686 230.199 508.185 228.206C505.433 226.213 505.308 226.213 505.308 231.195Z" fill="url(#paint29_linear_85_1764)"/>
<path d="M778.611 242.156C777.735 245.146 780.737 252.121 782.863 252.121C785.24 252.121 785.615 244.719 783.489 242.014C780.737 238.597 779.611 238.597 778.611 242.156Z" fill="url(#paint30_linear_85_1764)"/>
<path d="M336.073 246.142C334.822 247.566 333.946 250.413 333.946 252.548C333.946 256.107 334.196 256.249 337.073 254.683C339.45 253.402 340.2 251.979 340.2 248.277C340.2 243.01 339.074 242.441 336.073 246.142Z" fill="url(#paint31_linear_85_1764)"/>
<path d="M685.175 248.277C680.297 252.548 679.796 253.687 679.421 259.666C679.046 265.502 679.296 266.214 681.297 265.502C688.552 262.797 690.803 261.231 691.804 258.242C693.305 253.829 693.305 243.58 691.804 243.58C691.179 243.58 688.177 245.715 685.175 248.277Z" fill="url(#paint32_linear_85_1764)"/>
<path d="M625.011 254.399C623.51 256.107 629.138 266.499 632.39 267.78C636.768 269.773 640.396 269.488 639.895 267.353C639.52 266.499 639.02 263.936 638.645 261.801C638.144 259.666 636.893 257.246 635.643 256.534C632.39 254.683 626.011 253.26 625.011 254.399Z" fill="url(#paint33_linear_85_1764)"/>
<path d="M177.094 259.381C173.717 262.37 172.841 267.922 174.968 271.908C176.844 275.182 183.848 266.356 183.848 260.804C183.848 255.537 181.847 255.11 177.094 259.381Z" fill="url(#paint34_linear_85_1764)"/>
<path d="M803.127 265.929C803.001 270.342 802.376 272.05 800.75 272.62C796.122 274.328 793.245 279.595 792.745 287.424C792.495 291.837 792.87 294.827 793.62 294.827C796.247 294.827 804.252 287.567 804.878 284.435C805.253 282.727 805.003 276.463 804.502 270.627C803.627 262.94 803.252 261.659 803.127 265.929Z" fill="url(#paint35_linear_85_1764)"/>
<path d="M489.047 264.933C487.421 266.214 487.546 266.641 489.547 268.491C493.05 271.623 500.304 268.349 498.303 264.648C497.428 263.082 491.299 263.224 489.047 264.933Z" fill="url(#paint36_linear_85_1764)"/>
<path d="M332.695 273.331L328.443 276.036L332.945 281.161C336.573 285.289 338.324 286.286 342.452 286.286C349.206 286.286 355.21 284.862 355.21 283.154C355.21 282.3 353.084 279.168 350.332 276.178C344.703 269.773 339.95 269.061 332.695 273.331Z" fill="url(#paint37_linear_85_1764)"/>
<path d="M594.116 280.876L591.614 284.008L594.616 285.858C597.243 287.424 598.368 287.424 602.246 285.289C607.499 282.442 607.624 281.588 603.497 279.453C598.869 277.033 597.117 277.317 594.116 280.876Z" fill="url(#paint38_linear_85_1764)"/>
<path d="M618.757 284.008C613.628 289.275 612.628 295.538 615.755 302.371L617.381 306.073L620.758 302.941C625.136 298.813 626.637 293.83 625.386 286.57C624.886 283.154 624.26 280.164 623.885 279.88C623.635 279.453 621.258 281.303 618.757 284.008Z" fill="url(#paint39_linear_85_1764)"/>
<path d="M318.936 298.243C318.936 302.087 323.189 308.92 324.565 307.354C326.316 305.361 325.441 298.528 323.189 296.677C319.937 293.973 318.936 294.4 318.936 298.243Z" fill="url(#paint40_linear_85_1764)"/>
<path d="M513.313 297.531C508.56 300.806 507.934 301.944 507.309 307.496C506.934 311.34 507.309 311.909 509.686 311.909C514.314 311.909 517.941 307.496 518.691 300.805C519.442 294.115 518.816 293.688 513.313 297.531Z" fill="url(#paint41_linear_85_1764)"/>
<path d="M646.024 307.638C644.523 310.343 648.026 313.332 652.403 313.332C657.157 313.332 657.657 312.051 654.405 308.635C651.778 305.93 647.275 305.503 646.024 307.638Z" fill="url(#paint42_linear_85_1764)"/>
<path d="M509.686 321.447C502.681 326.856 501.68 328.707 501.555 337.105V344.508L506.809 342.8C514.689 340.095 517.191 334.543 516.69 320.735C516.565 316.749 515.69 316.749 509.686 321.447Z" fill="url(#paint43_linear_85_1764)"/>
<path d="M671.791 342.23C668.914 345.789 668.914 345.789 671.416 347.355C675.293 349.632 677.42 349.348 681.297 345.504C685.3 341.518 685.175 340.949 679.171 339.668C675.544 338.956 674.293 339.383 671.791 342.23Z" fill="url(#paint44_linear_85_1764)"/>
<path d="M415.374 347.782C413.748 348.778 410.996 351.625 409.37 354.188L406.243 358.743L410.871 360.878C417.125 363.868 420.502 363.725 424.38 360.309C427.882 357.177 433.386 349.063 432.635 348.209C431.009 346.501 418.001 346.216 415.374 347.782Z" fill="url(#paint45_linear_85_1764)"/>
<path d="M806.629 352.764C805.003 355.042 805.128 355.184 807.129 353.334C809.131 351.483 809.756 350.344 808.755 350.344C808.505 350.344 807.504 351.483 806.629 352.764Z" fill="url(#paint46_linear_85_1764)"/>
<path d="M785.615 357.462C780.487 361.732 780.237 362.302 782.238 364.01C785.99 367.142 793.996 367.996 797.123 365.576C800.75 362.871 804.753 355.184 802.626 354.899C801.751 354.899 798.874 354.33 796.122 353.903C791.744 353.049 790.368 353.618 785.615 357.462Z" fill="url(#paint47_linear_85_1764)"/>
<path d="M752.093 358.458C749.342 359.028 749.342 359.028 751.843 361.875C754.22 364.579 761.725 365.718 761.725 363.441C761.725 361.732 757.472 357.462 755.971 357.604C755.346 357.747 753.594 358.174 752.093 358.458Z" fill="url(#paint48_linear_85_1764)"/>
<path d="M686.175 366.715C686.676 367.854 687.426 368.85 688.052 368.85C688.677 368.85 691.679 371.412 694.681 374.544C698.684 378.672 701.185 380.238 704.062 380.238C708.19 380.238 715.444 376.822 715.444 374.829C715.444 372.836 705.938 367.427 702.561 367.427C700.685 367.427 697.808 368.138 696.057 369.135C693.305 370.558 692.304 370.274 689.177 367.711C686.551 365.434 685.675 365.149 686.175 366.715Z" fill="url(#paint49_linear_85_1764)"/>
<path d="M631.64 378.53C631.64 383.797 636.143 389.064 637.894 385.932C639.77 382.658 639.395 380.523 636.643 377.391C633.141 373.405 631.64 373.832 631.64 378.53Z" fill="url(#paint50_linear_85_1764)"/>
<path d="M320.062 392.623C319.312 397.605 323.064 405.292 325.316 403.584C327.442 402.161 326.566 394.616 324.065 393.05C321.188 391.342 320.187 391.199 320.062 392.623Z" fill="url(#paint51_linear_85_1764)"/>
<path d="M559.343 400.595L555.34 405.292L558.968 407.712C564.721 411.556 568.224 410.844 573.352 404.438C575.854 401.306 577.855 398.032 577.855 397.321C577.855 396.466 574.603 395.897 570.6 395.897C563.971 395.897 562.97 396.324 559.343 400.595Z" fill="url(#paint52_linear_85_1764)"/>
<path d="M737.334 403.157C736.333 407.001 735.332 408.139 731.83 408.851C725.576 410.275 721.949 412.979 720.698 417.108C719.947 419.101 719.072 422.09 718.446 423.513C717.571 425.933 718.071 426.218 723.7 425.364C730.204 424.652 735.458 419.67 735.458 414.261C735.458 412.695 736.333 409.421 737.459 407.143C738.46 404.723 739.21 401.734 738.96 400.595C738.71 399.314 738.084 400.452 737.334 403.157Z" fill="url(#paint53_linear_85_1764)"/>
<path d="M810.631 399.314C810.882 399.598 813.133 400.168 815.51 400.737C818.637 401.306 819.387 401.164 818.011 400.168C816.26 398.886 809.381 398.032 810.631 399.314Z" fill="url(#paint54_linear_85_1764)"/>
<path d="M821.138 404.723C823.89 415.684 825.016 417.108 835.898 420.666C841.527 422.517 841.777 422.517 841.777 419.955C841.777 416.253 838.4 407.285 835.898 404.153C834.397 402.303 832.02 401.591 827.142 401.591C820.638 401.591 820.388 401.733 821.138 404.723Z" fill="url(#paint55_linear_85_1764)"/>
<path d="M492.674 406.858C492.549 408.282 492.299 410.986 492.174 412.979C491.924 415.542 493.425 418.246 497.303 422.659L502.806 428.78L504.057 425.079C506.809 416.823 505.058 410.132 499.054 406.574C494.301 403.726 492.8 403.869 492.674 406.858Z" fill="url(#paint56_linear_85_1764)"/>
<path d="M520.318 408.993C520.318 414.118 522.194 417.25 525.071 417.25C527.822 417.25 526.321 408.709 523.194 406.146C520.443 404.153 520.318 404.296 520.318 408.993Z" fill="url(#paint57_linear_85_1764)"/>
<path d="M677.044 418.104C678.045 424.795 680.297 427.357 686.926 429.35C689.928 430.204 693.68 431.485 695.306 432.055C697.308 432.909 697.933 432.766 697.433 431.628C696.932 430.773 695.431 430.062 694.056 430.062C691.554 430.062 691.179 429.35 689.928 422.802C689.177 418.673 685.55 415.399 679.921 413.833C676.294 412.837 676.294 412.837 677.044 418.104Z" fill="url(#paint58_linear_85_1764)"/>
<path d="M574.102 425.506C574.102 429.777 576.729 434.332 579.231 434.332C581.732 434.332 579.731 425.506 576.979 423.229C574.228 421.236 574.102 421.378 574.102 425.506Z" fill="url(#paint59_linear_85_1764)"/>
<path d="M597.868 425.649C603.622 426.93 605.373 428.211 605.373 431.201C605.373 436.895 610.126 442.731 616.755 444.866C620.383 446.148 623.76 447.144 624.385 447.144C626.011 447.144 625.511 440.453 623.385 435.329C620.758 429.065 617.381 426.788 609.751 426.218C606.373 426.076 601.245 425.649 598.493 425.222C593.74 424.51 593.615 424.51 597.868 425.649Z" fill="url(#paint60_linear_85_1764)"/>
<path d="M282.162 428.069C281.162 430.916 284.789 437.606 286.79 436.752C287.666 436.468 288.416 434.759 288.667 433.051C289.417 427.357 283.788 423.086 282.162 428.069Z" fill="url(#paint61_linear_85_1764)"/>
<path d="M305.928 438.745C303.802 444.582 303.802 444.866 307.179 452.411C309.055 456.539 311.181 459.813 311.807 459.529C312.432 459.386 314.058 456.112 315.309 452.411C318.061 444.439 317.185 440.453 311.682 435.898L307.929 432.909L305.928 438.745Z" fill="url(#paint62_linear_85_1764)"/>
<path d="M333.946 442.731L330.944 445.436L333.946 448.425C335.697 449.991 338.449 451.272 339.95 451.415C342.952 451.415 350.207 447.286 350.207 445.72C350.207 444.439 341.701 440.026 339.2 440.026C338.074 440.026 335.697 441.308 333.946 442.731Z" fill="url(#paint63_linear_85_1764)"/>
<path d="M758.973 453.692C761.224 455.4 761.725 457.251 761.725 463.372C761.725 470.063 762.1 471.202 766.728 476.326L771.606 481.736L772.982 477.892C775.984 468.924 773.983 462.803 766.853 458.675C764.351 457.109 761.474 454.831 760.599 453.692C759.598 452.411 758.347 451.415 757.597 451.415C756.846 451.415 757.472 452.411 758.973 453.692Z" fill="url(#paint64_linear_85_1764)"/>
<path d="M700.435 461.949C700.435 466.789 704.813 472.625 706.814 470.347C708.94 467.927 707.189 462.091 703.562 460.24C700.685 458.675 700.435 458.817 700.435 461.949Z" fill="url(#paint65_linear_85_1764)"/>
<path d="M335.197 462.66C335.197 463.372 335.822 464.511 336.448 464.938C337.198 465.365 337.699 465.223 337.699 464.369C337.699 463.657 337.198 462.518 336.448 462.091C335.822 461.664 335.197 461.806 335.197 462.66Z" fill="url(#paint66_linear_85_1764)"/>
<path d="M354.71 469.493C353.084 471.344 354.084 475.757 356.586 478.604C359.088 481.451 359.463 481.451 360.463 479.316C361.089 478.035 361.214 475.757 360.839 474.191C359.963 471.059 355.96 468.07 354.71 469.493Z" fill="url(#paint67_linear_85_1764)"/>
</g>
</g>
<defs>
<filter id="filter0_d_85_1764" x="-74" y="-30" width="1564" height="759" filterUnits="userSpaceOnUse" color-interpolation-filters="sRGB">
<feFlood flood-opacity="0" result="BackgroundImageFix"/>
<feColorMatrix in="SourceAlpha" type="matrix" values="0 0 0 0 0 0 0 0 0 0 0 0 0 0 0 0 0 0 127 0" result="hardAlpha"/>
<feOffset dy="20"/>
<feGaussianBlur stdDeviation="25"/>
<feColorMatrix type="matrix" values="0 0 0 0 0 0 0 0 0 0 0 0 0 0 0 0 0 0 0.1 0"/>
<feBlend mode="normal" in2="BackgroundImageFix" result="effect1_dropShadow_85_1764"/>
<feBlend mode="normal" in="SourceGraphic" in2="effect1_dropShadow_85_1764" result="shape"/>
</filter>
<linearGradient id="paint0_linear_85_1764" x1="1.04029e-05" y1="495.5" x2="1440" y2="128" gradientUnits="userSpaceOnUse">
<stop stop-color="#1C6031" stop-opacity="0.9"/>
<stop offset="1" stop-color="#DCECC8"/>
</linearGradient>
<linearGradient id="paint1_linear_85_1764" x1="68.354" y1="330.767" x2="841.357" y2="330.767" gradientUnits="userSpaceOnUse">
<stop stop-color="#C4E0A6" stop-opacity="0.6"/>
<stop offset="1" stop-color="#C4E0A6" stop-opacity="0.1"/>
</linearGradient>
<linearGradient id="paint2_linear_85_1764" x1="68.3543" y1="330.767" x2="841.356" y2="330.767" gradientUnits="userSpaceOnUse">
<stop stop-color="#C4E0A6" stop-opacity="0.6"/>
<stop offset="1" stop-color="#C4E0A6" stop-opacity="0.1"/>
</linearGradient>
<linearGradient id="paint3_linear_85_1764" x1="68.3535" y1="330.767" x2="841.358" y2="330.767" gradientUnits="userSpaceOnUse">
<stop stop-color="#C4E0A6" stop-opacity="0.6"/>
<stop offset="1" stop-color="#C4E0A6" stop-opacity="0.1"/>
</linearGradient>
<linearGradient id="paint4_linear_85_1764" x1="68.3531" y1="330.767" x2="841.358" y2="330.767" gradientUnits="userSpaceOnUse">
<stop stop-color="#C4E0A6" stop-opacity="0.6"/>
<stop offset="1" stop-color="#C4E0A6" stop-opacity="0.1"/>
</linearGradient>
<linearGradient id="paint5_linear_85_1764" x1="68.3538" y1="330.767" x2="841.357" y2="330.767" gradientUnits="userSpaceOnUse">
<stop stop-color="#C4E0A6" stop-opacity="0.6"/>
<stop offset="1" stop-color="#C4E0A6" stop-opacity="0.1"/>
</linearGradient>
<linearGradient id="paint6_linear_85_1764" x1="68.353" y1="330.767" x2="841.358" y2="330.767" gradientUnits="userSpaceOnUse">
<stop stop-color="#C4E0A6" stop-opacity="0.6"/>
<stop offset="1" stop-color="#C4E0A6" stop-opacity="0.1"/>
</linearGradient>
<linearGradient id="paint7_linear_85_1764" x1="68.3541" y1="330.767" x2="841.357" y2="330.767" gradientUnits="userSpaceOnUse">
<stop stop-color="#C4E0A6" stop-opacity="0.6"/>
<stop offset="1" stop-color="#C4E0A6" stop-opacity="0.1"/>
</linearGradient>
<linearGradient id="paint8_linear_85_1764" x1="68.3548" y1="330.767" x2="841.357" y2="330.767" gradientUnits="userSpaceOnUse">
<stop stop-color="#C4E0A6" stop-opacity="0.6"/>
<stop offset="1" stop-color="#C4E0A6" stop-opacity="0.1"/>
</linearGradient>
<linearGradient id="paint9_linear_85_1764" x1="68.3555" y1="330.767" x2="841.356" y2="330.767" gradientUnits="userSpaceOnUse">
<stop stop-color="#C4E0A6" stop-opacity="0.6"/>
<stop offset="1" stop-color="#C4E0A6" stop-opacity="0.1"/>
</linearGradient>
<linearGradient id="paint10_linear_85_1764" x1="68.3524" y1="330.767" x2="841.358" y2="330.767" gradientUnits="userSpaceOnUse">
<stop stop-color="#C4E0A6" stop-opacity="0.6"/>
<stop offset="1" stop-color="#C4E0A6" stop-opacity="0.1"/>
</linearGradient>
<linearGradient id="paint11_linear_85_1764" x1="68.3538" y1="330.767" x2="841.358" y2="330.767" gradientUnits="userSpaceOnUse">
<stop stop-color="#C4E0A6" stop-opacity="0.6"/>
<stop offset="1" stop-color="#C4E0A6" stop-opacity="0.1"/>
</linearGradient>
<linearGradient id="paint12_linear_85_1764" x1="68.3543" y1="330.767" x2="841.356" y2="330.767" gradientUnits="userSpaceOnUse">
<stop stop-color="#C4E0A6" stop-opacity="0.6"/>
<stop offset="1" stop-color="#C4E0A6" stop-opacity="0.1"/>
</linearGradient>
<linearGradient id="paint13_linear_85_1764" x1="68.354" y1="330.767" x2="841.357" y2="330.767" gradientUnits="userSpaceOnUse">
<stop stop-color="#C4E0A6" stop-opacity="0.6"/>
<stop offset="1" stop-color="#C4E0A6" stop-opacity="0.1"/>
</linearGradient>
<linearGradient id="paint14_linear_85_1764" x1="68.3532" y1="330.767" x2="841.358" y2="330.767" gradientUnits="userSpaceOnUse">
<stop stop-color="#C4E0A6" stop-opacity="0.6"/>
<stop offset="1" stop-color="#C4E0A6" stop-opacity="0.1"/>
</linearGradient>
<linearGradient id="paint15_linear_85_1764" x1="68.3541" y1="330.767" x2="841.357" y2="330.767" gradientUnits="userSpaceOnUse">
<stop stop-color="#C4E0A6" stop-opacity="0.6"/>
<stop offset="1" stop-color="#C4E0A6" stop-opacity="0.1"/>
</linearGradient>
<linearGradient id="paint16_linear_85_1764" x1="68.3543" y1="330.767" x2="841.357" y2="330.767" gradientUnits="userSpaceOnUse">
<stop stop-color="#C4E0A6" stop-opacity="0.6"/>
<stop offset="1" stop-color="#C4E0A6" stop-opacity="0.1"/>
</linearGradient>
<linearGradient id="paint17_linear_85_1764" x1="68.3541" y1="330.767" x2="841.357" y2="330.767" gradientUnits="userSpaceOnUse">
<stop stop-color="#C4E0A6" stop-opacity="0.6"/>
<stop offset="1" stop-color="#C4E0A6" stop-opacity="0.1"/>
</linearGradient>
<linearGradient id="paint18_linear_85_1764" x1="68.3542" y1="330.767" x2="841.357" y2="330.767" gradientUnits="userSpaceOnUse">
<stop stop-color="#C4E0A6" stop-opacity="0.6"/>
<stop offset="1" stop-color="#C4E0A6" stop-opacity="0.1"/>
</linearGradient>
<linearGradient id="paint19_linear_85_1764" x1="68.3538" y1="330.767" x2="841.357" y2="330.767" gradientUnits="userSpaceOnUse">
<stop stop-color="#C4E0A6" stop-opacity="0.6"/>
<stop offset="1" stop-color="#C4E0A6" stop-opacity="0.1"/>
</linearGradient>
<linearGradient id="paint20_linear_85_1764" x1="68.3532" y1="330.767" x2="841.357" y2="330.767" gradientUnits="userSpaceOnUse">
<stop stop-color="#C4E0A6" stop-opacity="0.6"/>
<stop offset="1" stop-color="#C4E0A6" stop-opacity="0.1"/>
</linearGradient>
<linearGradient id="paint21_linear_85_1764" x1="68.3551" y1="330.767" x2="841.357" y2="330.767" gradientUnits="userSpaceOnUse">
<stop stop-color="#C4E0A6" stop-opacity="0.6"/>
<stop offset="1" stop-color="#C4E0A6" stop-opacity="0.1"/>
</linearGradient>
<linearGradient id="paint22_linear_85_1764" x1="68.3538" y1="330.767" x2="841.357" y2="330.767" gradientUnits="userSpaceOnUse">
<stop stop-color="#C4E0A6" stop-opacity="0.6"/>
<stop offset="1" stop-color="#C4E0A6" stop-opacity="0.1"/>
</linearGradient>
<linearGradient id="paint23_linear_85_1764" x1="68.3537" y1="330.767" x2="841.363" y2="330.767" gradientUnits="userSpaceOnUse">
<stop stop-color="#C4E0A6" stop-opacity="0.6"/>
<stop offset="1" stop-color="#C4E0A6" stop-opacity="0.1"/>
</linearGradient>
<linearGradient id="paint24_linear_85_1764" x1="68.3532" y1="330.767" x2="841.358" y2="330.767" gradientUnits="userSpaceOnUse">
<stop stop-color="#C4E0A6" stop-opacity="0.6"/>
<stop offset="1" stop-color="#C4E0A6" stop-opacity="0.1"/>
</linearGradient>
<linearGradient id="paint25_linear_85_1764" x1="68.3542" y1="330.767" x2="841.357" y2="330.767" gradientUnits="userSpaceOnUse">
<stop stop-color="#C4E0A6" stop-opacity="0.6"/>
<stop offset="1" stop-color="#C4E0A6" stop-opacity="0.1"/>
</linearGradient>
<linearGradient id="paint26_linear_85_1764" x1="68.3563" y1="330.767" x2="841.355" y2="330.767" gradientUnits="userSpaceOnUse">
<stop stop-color="#C4E0A6" stop-opacity="0.6"/>
<stop offset="1" stop-color="#C4E0A6" stop-opacity="0.1"/>
</linearGradient>
<linearGradient id="paint27_linear_85_1764" x1="68.3539" y1="330.767" x2="841.357" y2="330.767" gradientUnits="userSpaceOnUse">
<stop stop-color="#C4E0A6" stop-opacity="0.6"/>
<stop offset="1" stop-color="#C4E0A6" stop-opacity="0.1"/>
</linearGradient>
<linearGradient id="paint28_linear_85_1764" x1="68.3529" y1="330.767" x2="841.357" y2="330.767" gradientUnits="userSpaceOnUse">
<stop stop-color="#C4E0A6" stop-opacity="0.6"/>
<stop offset="1" stop-color="#C4E0A6" stop-opacity="0.1"/>
</linearGradient>
<linearGradient id="paint29_linear_85_1764" x1="68.3544" y1="330.767" x2="841.357" y2="330.767" gradientUnits="userSpaceOnUse">
<stop stop-color="#C4E0A6" stop-opacity="0.6"/>
<stop offset="1" stop-color="#C4E0A6" stop-opacity="0.1"/>
</linearGradient>
<linearGradient id="paint30_linear_85_1764" x1="68.3566" y1="330.767" x2="841.357" y2="330.767" gradientUnits="userSpaceOnUse">
<stop stop-color="#C4E0A6" stop-opacity="0.6"/>
<stop offset="1" stop-color="#C4E0A6" stop-opacity="0.1"/>
</linearGradient>
<linearGradient id="paint31_linear_85_1764" x1="68.3541" y1="330.767" x2="841.357" y2="330.767" gradientUnits="userSpaceOnUse">
<stop stop-color="#C4E0A6" stop-opacity="0.6"/>
<stop offset="1" stop-color="#C4E0A6" stop-opacity="0.1"/>
</linearGradient>
<linearGradient id="paint32_linear_85_1764" x1="68.354" y1="330.767" x2="841.357" y2="330.767" gradientUnits="userSpaceOnUse">
<stop stop-color="#C4E0A6" stop-opacity="0.6"/>
<stop offset="1" stop-color="#C4E0A6" stop-opacity="0.1"/>
</linearGradient>
<linearGradient id="paint33_linear_85_1764" x1="68.3529" y1="330.767" x2="841.357" y2="330.767" gradientUnits="userSpaceOnUse">
<stop stop-color="#C4E0A6" stop-opacity="0.6"/>
<stop offset="1" stop-color="#C4E0A6" stop-opacity="0.1"/>
</linearGradient>
<linearGradient id="paint34_linear_85_1764" x1="68.3539" y1="330.767" x2="841.358" y2="330.767" gradientUnits="userSpaceOnUse">
<stop stop-color="#C4E0A6" stop-opacity="0.6"/>
<stop offset="1" stop-color="#C4E0A6" stop-opacity="0.1"/>
</linearGradient>
<linearGradient id="paint35_linear_85_1764" x1="68.3539" y1="330.767" x2="841.357" y2="330.767" gradientUnits="userSpaceOnUse">
<stop stop-color="#C4E0A6" stop-opacity="0.6"/>
<stop offset="1" stop-color="#C4E0A6" stop-opacity="0.1"/>
</linearGradient>
<linearGradient id="paint36_linear_85_1764" x1="68.3547" y1="330.767" x2="841.356" y2="330.767" gradientUnits="userSpaceOnUse">
<stop stop-color="#C4E0A6" stop-opacity="0.6"/>
<stop offset="1" stop-color="#C4E0A6" stop-opacity="0.1"/>
</linearGradient>
<linearGradient id="paint37_linear_85_1764" x1="68.354" y1="330.767" x2="841.357" y2="330.767" gradientUnits="userSpaceOnUse">
<stop stop-color="#C4E0A6" stop-opacity="0.6"/>
<stop offset="1" stop-color="#C4E0A6" stop-opacity="0.1"/>
</linearGradient>
<linearGradient id="paint38_linear_85_1764" x1="68.3547" y1="330.767" x2="841.357" y2="330.767" gradientUnits="userSpaceOnUse">
<stop stop-color="#C4E0A6" stop-opacity="0.6"/>
<stop offset="1" stop-color="#C4E0A6" stop-opacity="0.1"/>
</linearGradient>
<linearGradient id="paint39_linear_85_1764" x1="68.3551" y1="330.767" x2="841.357" y2="330.767" gradientUnits="userSpaceOnUse">
<stop stop-color="#C4E0A6" stop-opacity="0.6"/>
<stop offset="1" stop-color="#C4E0A6" stop-opacity="0.1"/>
</linearGradient>
<linearGradient id="paint40_linear_85_1764" x1="68.3542" y1="330.767" x2="841.357" y2="330.767" gradientUnits="userSpaceOnUse">
<stop stop-color="#C4E0A6" stop-opacity="0.6"/>
<stop offset="1" stop-color="#C4E0A6" stop-opacity="0.1"/>
</linearGradient>
<linearGradient id="paint41_linear_85_1764" x1="68.3554" y1="330.767" x2="841.356" y2="330.767" gradientUnits="userSpaceOnUse">
<stop stop-color="#C4E0A6" stop-opacity="0.6"/>
<stop offset="1" stop-color="#C4E0A6" stop-opacity="0.1"/>
</linearGradient>
<linearGradient id="paint42_linear_85_1764" x1="68.3521" y1="330.767" x2="841.358" y2="330.767" gradientUnits="userSpaceOnUse">
<stop stop-color="#C4E0A6" stop-opacity="0.6"/>
<stop offset="1" stop-color="#C4E0A6" stop-opacity="0.1"/>
</linearGradient>
<linearGradient id="paint43_linear_85_1764" x1="68.3537" y1="330.767" x2="841.357" y2="330.767" gradientUnits="userSpaceOnUse">
<stop stop-color="#C4E0A6" stop-opacity="0.6"/>
<stop offset="1" stop-color="#C4E0A6" stop-opacity="0.1"/>
</linearGradient>
<linearGradient id="paint44_linear_85_1764" x1="68.3544" y1="330.767" x2="841.357" y2="330.767" gradientUnits="userSpaceOnUse">
<stop stop-color="#C4E0A6" stop-opacity="0.6"/>
<stop offset="1" stop-color="#C4E0A6" stop-opacity="0.1"/>
</linearGradient>
<linearGradient id="paint45_linear_85_1764" x1="68.354" y1="330.767" x2="841.357" y2="330.767" gradientUnits="userSpaceOnUse">
<stop stop-color="#C4E0A6" stop-opacity="0.6"/>
<stop offset="1" stop-color="#C4E0A6" stop-opacity="0.1"/>
</linearGradient>
<linearGradient id="paint46_linear_85_1764" x1="68.3576" y1="330.767" x2="841.357" y2="330.767" gradientUnits="userSpaceOnUse">
<stop stop-color="#C4E0A6" stop-opacity="0.6"/>
<stop offset="1" stop-color="#C4E0A6" stop-opacity="0.1"/>
</linearGradient>
<linearGradient id="paint47_linear_85_1764" x1="68.3541" y1="330.767" x2="841.357" y2="330.767" gradientUnits="userSpaceOnUse">
<stop stop-color="#C4E0A6" stop-opacity="0.6"/>
<stop offset="1" stop-color="#C4E0A6" stop-opacity="0.1"/>
</linearGradient>
<linearGradient id="paint48_linear_85_1764" x1="68.3564" y1="330.767" x2="841.357" y2="330.767" gradientUnits="userSpaceOnUse">
<stop stop-color="#C4E0A6" stop-opacity="0.6"/>
<stop offset="1" stop-color="#C4E0A6" stop-opacity="0.1"/>
</linearGradient>
<linearGradient id="paint49_linear_85_1764" x1="68.3544" y1="330.767" x2="841.357" y2="330.767" gradientUnits="userSpaceOnUse">
<stop stop-color="#C4E0A6" stop-opacity="0.6"/>
<stop offset="1" stop-color="#C4E0A6" stop-opacity="0.1"/>
</linearGradient>
<linearGradient id="paint50_linear_85_1764" x1="68.3558" y1="330.767" x2="841.356" y2="330.767" gradientUnits="userSpaceOnUse">
<stop stop-color="#C4E0A6" stop-opacity="0.6"/>
<stop offset="1" stop-color="#C4E0A6" stop-opacity="0.1"/>
</linearGradient>
<linearGradient id="paint51_linear_85_1764" x1="68.3542" y1="330.767" x2="841.357" y2="330.767" gradientUnits="userSpaceOnUse">
<stop stop-color="#C4E0A6" stop-opacity="0.6"/>
<stop offset="1" stop-color="#C4E0A6" stop-opacity="0.1"/>
</linearGradient>
<linearGradient id="paint52_linear_85_1764" x1="68.3551" y1="330.767" x2="841.356" y2="330.767" gradientUnits="userSpaceOnUse">
<stop stop-color="#C4E0A6" stop-opacity="0.6"/>
<stop offset="1" stop-color="#C4E0A6" stop-opacity="0.1"/>
</linearGradient>
<linearGradient id="paint53_linear_85_1764" x1="68.353" y1="330.767" x2="841.357" y2="330.767" gradientUnits="userSpaceOnUse">
<stop stop-color="#C4E0A6" stop-opacity="0.6"/>
<stop offset="1" stop-color="#C4E0A6" stop-opacity="0.1"/>
</linearGradient>
<linearGradient id="paint54_linear_85_1764" x1="68.3531" y1="330.767" x2="841.357" y2="330.767" gradientUnits="userSpaceOnUse">
<stop stop-color="#C4E0A6" stop-opacity="0.6"/>
<stop offset="1" stop-color="#C4E0A6" stop-opacity="0.1"/>
</linearGradient>
<linearGradient id="paint55_linear_85_1764" x1="68.355" y1="330.767" x2="841.357" y2="330.767" gradientUnits="userSpaceOnUse">
<stop stop-color="#C4E0A6" stop-opacity="0.6"/>
<stop offset="1" stop-color="#C4E0A6" stop-opacity="0.1"/>
</linearGradient>
<linearGradient id="paint56_linear_85_1764" x1="68.354" y1="330.767" x2="841.357" y2="330.767" gradientUnits="userSpaceOnUse">
<stop stop-color="#C4E0A6" stop-opacity="0.6"/>
<stop offset="1" stop-color="#C4E0A6" stop-opacity="0.1"/>
</linearGradient>
<linearGradient id="paint57_linear_85_1764" x1="68.355" y1="330.767" x2="841.356" y2="330.767" gradientUnits="userSpaceOnUse">
<stop stop-color="#C4E0A6" stop-opacity="0.6"/>
<stop offset="1" stop-color="#C4E0A6" stop-opacity="0.1"/>
</linearGradient>
<linearGradient id="paint58_linear_85_1764" x1="68.3547" y1="330.767" x2="841.357" y2="330.767" gradientUnits="userSpaceOnUse">
<stop stop-color="#C4E0A6" stop-opacity="0.6"/>
<stop offset="1" stop-color="#C4E0A6" stop-opacity="0.1"/>
</linearGradient>
<linearGradient id="paint59_linear_85_1764" x1="68.352" y1="330.767" x2="841.358" y2="330.767" gradientUnits="userSpaceOnUse">
<stop stop-color="#C4E0A6" stop-opacity="0.6"/>
<stop offset="1" stop-color="#C4E0A6" stop-opacity="0.1"/>
</linearGradient>
<linearGradient id="paint60_linear_85_1764" x1="68.3535" y1="330.767" x2="841.357" y2="330.767" gradientUnits="userSpaceOnUse">
<stop stop-color="#C4E0A6" stop-opacity="0.6"/>
<stop offset="1" stop-color="#C4E0A6" stop-opacity="0.1"/>
</linearGradient>
<linearGradient id="paint61_linear_85_1764" x1="68.3539" y1="330.767" x2="841.357" y2="330.767" gradientUnits="userSpaceOnUse">
<stop stop-color="#C4E0A6" stop-opacity="0.6"/>
<stop offset="1" stop-color="#C4E0A6" stop-opacity="0.1"/>
</linearGradient>
<linearGradient id="paint62_linear_85_1764" x1="68.3541" y1="330.767" x2="841.357" y2="330.767" gradientUnits="userSpaceOnUse">
<stop stop-color="#C4E0A6" stop-opacity="0.6"/>
<stop offset="1" stop-color="#C4E0A6" stop-opacity="0.1"/>
</linearGradient>
<linearGradient id="paint63_linear_85_1764" x1="68.354" y1="330.767" x2="841.357" y2="330.767" gradientUnits="userSpaceOnUse">
<stop stop-color="#C4E0A6" stop-opacity="0.6"/>
<stop offset="1" stop-color="#C4E0A6" stop-opacity="0.1"/>
</linearGradient>
<linearGradient id="paint64_linear_85_1764" x1="68.3536" y1="330.767" x2="841.357" y2="330.767" gradientUnits="userSpaceOnUse">
<stop stop-color="#C4E0A6" stop-opacity="0.6"/>
<stop offset="1" stop-color="#C4E0A6" stop-opacity="0.1"/>
</linearGradient>
<linearGradient id="paint65_linear_85_1764" x1="68.3518" y1="330.767" x2="841.358" y2="330.767" gradientUnits="userSpaceOnUse">
<stop stop-color="#C4E0A6" stop-opacity="0.6"/>
<stop offset="1" stop-color="#C4E0A6" stop-opacity="0.1"/>
</linearGradient>
<linearGradient id="paint66_linear_85_1764" x1="68.3525" y1="330.768" x2="841.36" y2="330.768" gradientUnits="userSpaceOnUse">
<stop stop-color="#C4E0A6" stop-opacity="0.6"/>
<stop offset="1" stop-color="#C4E0A6" stop-opacity="0.1"/>
</linearGradient>
<linearGradient id="paint67_linear_85_1764" x1="68.3539" y1="330.767" x2="841.357" y2="330.767" gradientUnits="userSpaceOnUse">
<stop stop-color="#C4E0A6" stop-opacity="0.6"/>
<stop offset="1" stop-color="#C4E0A6" stop-opacity="0.1"/>
</linearGradient>
</defs>
</svg>
